<?xml version="1.0" encoding="utf-8"?>
<!-- Generator: Adobe Illustrator 16.0.0, SVG Export Plug-In . SVG Version: 6.00 Build 0)  -->
<!DOCTYPE svg PUBLIC "-//W3C//DTD SVG 1.1//EN" "http://www.w3.org/Graphics/SVG/1.1/DTD/svg11.dtd">
<svg version="1.1" id="Layer_1" xmlns="http://www.w3.org/2000/svg" xmlns:xlink="http://www.w3.org/1999/xlink" x="0px" y="0px"
	 width="100px" height="100px" viewBox="0 0 100 100" enable-background="new 0 0 100 100" xml:space="preserve">
<g>
	<path fill="#00AE4D" d="M50,100c27.618,0,50-22.388,50-50.001C100,22.386,77.618,0,50,0C22.385,0,0,22.386,0,49.999
		C0,77.612,22.385,100,50,100"/>
	<path fill="#FFFFFF" d="M37.644,69.092h-9.747v-31.19h9.747V69.092z M32.521,34h-0.07c-3.527,0-5.814-2.384-5.814-5.405
		c0-3.081,2.356-5.416,5.953-5.416c3.594,0,5.806,2.33,5.876,5.408C38.466,31.609,36.184,34,32.521,34z M76.637,69.092H65.583
		V52.951c0-4.225-1.725-7.107-5.529-7.107c-2.905,0-4.521,1.945-5.276,3.821c-0.281,0.672-0.235,1.609-0.235,2.549v16.877h-10.95
		c0,0,0.142-28.59,0-31.19h10.95v4.895c0.646-2.14,4.143-5.195,9.727-5.195c6.925,0,12.368,4.487,12.368,14.146V69.092z"/>
</g>
</svg>
