<?xml version="1.0" encoding="utf-8"?>
<!-- Generator: Adobe Illustrator 16.0.0, SVG Export Plug-In . SVG Version: 6.00 Build 0)  -->
<!DOCTYPE svg PUBLIC "-//W3C//DTD SVG 1.1//EN" "http://www.w3.org/Graphics/SVG/1.1/DTD/svg11.dtd">
<svg version="1.1" id="Layer_1" xmlns="http://www.w3.org/2000/svg" xmlns:xlink="http://www.w3.org/1999/xlink" x="0px" y="0px"
	 width="100px" height="100px" viewBox="0 0 100 100" enable-background="new 0 0 100 100" xml:space="preserve">
<g>
	<path fill="#00AE4D" d="M50,100c27.618,0,50-22.388,50-50.001C100,22.386,77.618,0,50,0C22.385,0,0,22.386,0,49.999
		C0,77.612,22.385,100,50,100"/>
	<path fill-rule="evenodd" clip-rule="evenodd" fill="#FFFFFF" d="M74.988,72.654c-6.534,4.332-9.592,2.139-11.196-4.453
		c-1.441-5.925-3.543-11.685-7.163-17.505c0,4.426,0.56,8.95-0.204,13.236c-0.482,2.713-2.368,6.066-4.636,7.372
		c-3.911,2.245-7.275,0.359-9.305-3.878c-1.206-2.521-2.974-4.766-4.921-7.81c-0.56,1.27-1.009,1.814-1.003,2.357
		c0.042,4.338,1.144,9.626-5.275,10.045c-7.172,0.472-5.229-6.155-5.665-9.646c-0.89-7.126-0.642-14.438-0.273-21.644
		c0.102-2.017,2.139-5.468,3.494-5.573c2.894-0.221,6.854,0.422,8.688,2.333c3.066,3.198,4.807,7.666,7.572,12.391
		c1.967-6.577,3.427-12.293,5.419-17.818c1.261-3.491,2.363-7.281,7.804-6.938c5.104,0.324,6.542,3.501,7.452,7.375
		C68.905,45.771,71.888,59.075,74.988,72.654z"/>
</g>
</svg>
