<?xml version="1.0" encoding="utf-8"?>
<!-- Generator: Adobe Illustrator 16.0.0, SVG Export Plug-In . SVG Version: 6.00 Build 0)  -->
<!DOCTYPE svg PUBLIC "-//W3C//DTD SVG 1.1//EN" "http://www.w3.org/Graphics/SVG/1.1/DTD/svg11.dtd">
<svg version="1.1" id="Layer_1" xmlns="http://www.w3.org/2000/svg" xmlns:xlink="http://www.w3.org/1999/xlink" x="0px" y="0px"
	 width="512.831px" height="350px" viewBox="-122.177 -87.5 512.831 350" enable-background="new -122.177 -87.5 512.831 350"
	 xml:space="preserve">
<g>
	<g enable-background="new    ">
		<path d="M-122.177,247.201v-28.998h7.476l3.926,10.18c0.213,0.6,0.454,1.29,0.724,2.066c0.27,0.774,0.566,1.669,0.891,2.687
			l0.807,2.554c-0.289-2.518-0.508-4.673-0.658-6.459c-0.15-1.792-0.226-3.294-0.226-4.51v-6.518h7.477v28.998h-7.477l-3.944-10.668
			c-0.414-1.14-0.786-2.205-1.119-3.2c-0.331-0.998-0.625-1.944-0.875-2.849c0.162,2.044,0.281,3.819,0.358,5.334
			c0.077,1.52,0.114,2.845,0.114,3.982v7.4H-122.177z"/>
		<path d="M-87.3,240.327l7.363,0.15c-0.525,2.365-1.55,4.147-3.071,5.342c-1.521,1.195-3.509,1.796-5.963,1.796
			c-2.905,0-5.185-0.903-6.836-2.706c-1.641-1.827-2.46-4.326-2.46-7.496c0-3.215,0.882-5.84,2.647-7.866
			c1.765-2.044,4.045-3.065,6.836-3.065c2.78,0,4.997,0.985,6.65,2.95c1.651,1.977,2.48,4.601,2.48,7.869l-0.039,1.334h-11.044
			c0.087,2.076,0.676,3.118,1.765,3.118C-88.119,241.756-87.563,241.278-87.3,240.327z M-87.13,234.58
			c0-0.375-0.044-0.721-0.131-1.034c-0.088-0.311-0.209-0.581-0.366-0.807c-0.156-0.226-0.34-0.404-0.555-0.534
			c-0.213-0.132-0.444-0.199-0.694-0.199c-0.526,0-0.952,0.242-1.277,0.724s-0.489,1.097-0.489,1.851H-87.13z"/>
		<path d="M-54.92,247.201h-7.456l-1.541-12.168l-2.33,12.168h-7.381l-5.052-20.302h7.401l1.145,6.517
			c0.137,0.827,0.271,1.711,0.402,2.647c0.131,0.939,0.254,1.961,0.366,3.061c0.101-1.14,0.235-2.229,0.402-3.275
			c0.17-1.045,0.36-2.057,0.574-3.032l1.332-5.917h6.423l1.089,6.539c0.139,0.839,0.264,1.729,0.376,2.676
			c0.111,0.947,0.219,1.949,0.319,3.014c0.2-1.438,0.4-2.753,0.601-3.934c0.2-1.185,0.407-2.271,0.621-3.26l1.089-5.031h7.532
			L-54.92,247.201z"/>
		<path d="M-22.408,247.201h-7.832V234.92l-7.193-16.718h8.171l1.409,4.298c0.275,0.842,0.522,1.646,0.742,2.425
			c0.219,0.778,0.417,1.52,0.59,2.234c0.29-1.064,0.538-1.98,0.753-2.753c0.214-0.768,0.402-1.392,0.564-1.869l1.429-4.337h8.111
			l-6.742,16.716v12.285H-22.408z"/>
		<path d="M2.46,237.356c0,3.133-0.863,5.626-2.593,7.478c-1.727,1.854-4.045,2.781-6.948,2.781c-2.853,0-5.127-0.946-6.817-2.84
			c-1.679-1.902-2.519-4.455-2.519-7.659c0-3.208,0.857-5.779,2.575-7.72c1.704-1.956,3.963-2.932,6.779-2.932
			c2.969,0,5.296,0.973,6.987,2.912C1.617,231.317,2.46,233.977,2.46,237.356z M-4.846,237.116c0-0.754-0.05-1.431-0.15-2.04
			c-0.1-0.607-0.244-1.128-0.433-1.561c-0.188-0.431-0.412-0.766-0.676-1.004c-0.263-0.235-0.557-0.357-0.883-0.357
			c-0.637,0-1.153,0.449-1.54,1.352c-0.387,0.79-0.583,1.971-0.583,3.552c0,1.552,0.196,2.735,0.583,3.55
			c0.387,0.9,0.909,1.352,1.56,1.352c0.612,0,1.121-0.443,1.521-1.331C-5.046,239.64-4.846,238.466-4.846,237.116z"/>
		<path d="M12.903,247.201H5.372v-20.302h7.531l-0.394,3.963c1.139-2.967,3.024-4.452,5.654-4.452v8.453
			c-0.826-0.449-1.529-0.677-2.105-0.677c-1.012,0-1.794,0.367-2.339,1.101c-0.543,0.73-0.817,1.799-0.817,3.201V247.201z"/>
		<path d="M31.893,247.201l-2.912-7.889c-0.138-0.351-0.364-1.121-0.678-2.31v10.198h-7.531v-31.724h7.531v20.566
			c0.162-0.524,0.341-1.049,0.536-1.565c0.193-0.521,0.396-1.052,0.608-1.587l2.443-5.992h8.151l-4.999,9.318l5.503,10.987h-8.654
			V247.201z"/>
		<path d="M64.271,247.201h-7.83V225.15h-4.32v-6.947h16.642v6.947h-4.49v22.051H64.271z"/>
		<path d="M79.899,240.327l7.362,0.15c-0.524,2.365-1.549,4.147-3.07,5.342c-1.521,1.195-3.508,1.796-5.965,1.796
			c-2.906,0-5.183-0.903-6.837-2.706c-1.641-1.827-2.46-4.326-2.46-7.496c0-3.215,0.884-5.84,2.649-7.866
			c1.766-2.044,4.045-3.065,6.837-3.065c2.78,0,4.996,0.985,6.649,2.95c1.653,1.977,2.478,4.601,2.478,7.869l-0.039,1.334H76.46
			c0.088,2.076,0.678,3.118,1.766,3.118C79.079,241.756,79.637,241.278,79.899,240.327z M80.068,234.58
			c0-0.375-0.042-0.721-0.13-1.034c-0.087-0.311-0.209-0.581-0.364-0.807c-0.158-0.226-0.343-0.404-0.555-0.534
			c-0.212-0.132-0.445-0.199-0.696-0.199c-0.523,0-0.95,0.242-1.276,0.724c-0.326,0.481-0.49,1.097-0.49,1.851H80.068z"/>
		<path d="M101.01,240.571v6.931c-0.449,0.049-0.843,0.085-1.182,0.105c-0.339,0.019-0.621,0.028-0.846,0.028
			c-2.252,0-4.137-0.679-5.655-2.029c-1.025-0.915-1.859-2.166-2.497-3.756c-0.639-1.591-0.959-3.227-0.959-4.903
			c0-2.979,0.915-5.479,2.744-7.495c1.813-1.989,4.106-2.987,6.873-2.987c0.164,0,0.368,0.008,0.62,0.019
			c0.25,0.014,0.55,0.032,0.901,0.057v6.612c-2.228,0.15-3.342,1.365-3.342,3.645c0,1.026,0.277,1.929,0.828,2.703
			c0.562,0.741,1.234,1.109,2.01,1.109c0.075,0,0.152-0.004,0.233-0.01C100.821,240.593,100.912,240.583,101.01,240.571z"/>
		<path d="M122.439,247.201h-7.531v-10.743c0-0.925-0.091-1.57-0.271-1.933c-0.184-0.363-0.5-0.546-0.95-0.546
			c-1.051,0-1.577,0.997-1.577,2.988v10.233h-7.532v-31.724h7.532v11.347c0,0.613-0.003,1.128-0.009,1.538
			c-0.006,0.413-0.016,0.729-0.029,0.939c-0.014,0.213-0.033,0.44-0.056,0.677c-0.024,0.237-0.05,0.503-0.074,0.79
			c1.214-2.867,2.993-4.302,5.335-4.302c1.628,0,2.894,0.605,3.794,1.82c0.915,1.216,1.371,2.906,1.371,5.074v13.84H122.439z"/>
		<path d="M145.881,247.201h-7.53v-14.236h-2.18v-6.065h2.18v-3.738c0-2.617,0.565-4.603,1.699-5.956
			c1.134-1.35,2.794-2.028,4.988-2.028c1.087,0,2.271,0.179,3.55,0.526v6.986c-0.666-0.476-1.177-0.713-1.542-0.713
			c-0.774,0-1.164,0.692-1.164,2.086v2.837h2.706v6.065h-2.706L145.881,247.201L145.881,247.201z"/>
		<path d="M169.134,237.356c0,3.133-0.862,5.626-2.595,7.478c-1.726,1.854-4.044,2.781-6.946,2.781c-2.854,0-5.128-0.946-6.817-2.84
			c-1.68-1.902-2.518-4.455-2.518-7.659c0-3.208,0.855-5.779,2.571-7.72c1.704-1.956,3.966-2.932,6.78-2.932
			c2.969,0,5.296,0.973,6.986,2.912C168.29,231.317,169.134,233.977,169.134,237.356z M161.828,237.116
			c0-0.754-0.051-1.431-0.15-2.04c-0.102-0.607-0.245-1.128-0.433-1.561c-0.19-0.431-0.414-0.766-0.677-1.004
			c-0.264-0.235-0.559-0.357-0.884-0.357c-0.638,0-1.154,0.449-1.542,1.352c-0.385,0.79-0.583,1.971-0.583,3.552
			c0,1.552,0.198,2.735,0.583,3.55c0.388,0.9,0.91,1.352,1.561,1.352c0.613,0,1.121-0.443,1.521-1.331
			C161.627,239.64,161.828,238.466,161.828,237.116z"/>
		<path d="M179.576,247.201h-7.531v-20.302h7.531l-0.395,3.963c1.14-2.967,3.023-4.452,5.655-4.452v8.453
			c-0.827-0.449-1.53-0.677-2.105-0.677c-1.012,0-1.794,0.367-2.339,1.101c-0.542,0.73-0.816,1.799-0.816,3.201V247.201z"/>
		<path d="M198.246,246.486v-9.107c1.54,2.104,3.204,3.159,4.998,3.159c0.677,0,1.226-0.181,1.65-0.538
			c0.427-0.357,0.64-0.805,0.64-1.341c0-0.776-0.463-1.534-1.392-2.272l-1.276-0.998c-0.852-0.638-1.578-1.273-2.18-1.905
			s-1.09-1.282-1.464-1.953c-0.377-0.671-0.653-1.363-0.83-2.076c-0.173-0.714-0.263-1.466-0.263-2.254
			c0-1.352,0.313-2.768,0.94-4.245c0.312-0.688,0.677-1.32,1.086-1.888c0.414-0.568,0.892-1.074,1.428-1.51
			c1.479-1.253,3.262-1.879,5.353-1.879c1.867,0,3.745,0.493,5.635,1.483v8.865c-0.638-0.991-1.365-1.768-2.178-2.339
			c-0.813-0.569-1.616-0.854-2.404-0.854c-0.602,0-1.094,0.177-1.485,0.524c-0.398,0.341-0.6,0.746-0.6,1.221
			c0,0.776,0.532,1.549,1.596,2.311l1.241,0.919c1.652,1.192,2.837,2.414,3.55,3.663c0.728,1.254,1.091,2.719,1.091,4.396
			c0,2.854-0.873,5.21-2.611,7.062c-1.739,1.854-3.943,2.779-6.613,2.779C202.322,247.709,200.351,247.299,198.246,246.486z"/>
		<path d="M234.458,237.356c0,3.133-0.861,5.626-2.595,7.478c-1.726,1.854-4.042,2.781-6.947,2.781c-2.852,0-5.127-0.946-6.817-2.84
			c-1.679-1.902-2.518-4.455-2.518-7.659c0-3.208,0.857-5.779,2.574-7.72c1.703-1.956,3.963-2.932,6.778-2.932
			c2.971,0,5.298,0.973,6.986,2.912C233.612,231.317,234.458,233.977,234.458,237.356z M227.151,237.116
			c0-0.754-0.049-1.431-0.15-2.04c-0.1-0.607-0.244-1.128-0.432-1.561c-0.188-0.431-0.414-0.766-0.677-1.004
			c-0.264-0.235-0.557-0.357-0.884-0.357c-0.636,0-1.153,0.449-1.54,1.352c-0.388,0.79-0.583,1.971-0.583,3.552
			c0,1.552,0.195,2.735,0.583,3.55c0.387,0.9,0.908,1.352,1.559,1.352c0.613,0,1.12-0.443,1.522-1.331
			C226.952,239.64,227.151,238.466,227.151,237.116z"/>
		<path d="M247.926,240.571v6.931c-0.449,0.049-0.845,0.085-1.183,0.105c-0.339,0.019-0.621,0.028-0.847,0.028
			c-2.252,0-4.136-0.679-5.653-2.029c-1.024-0.915-1.859-2.166-2.497-3.756c-0.639-1.591-0.959-3.227-0.959-4.903
			c0-2.979,0.916-5.479,2.743-7.495c1.814-1.989,4.106-2.987,6.874-2.987c0.164,0,0.369,0.008,0.621,0.019
			c0.25,0.014,0.549,0.032,0.9,0.057v6.612c-2.229,0.15-3.341,1.365-3.341,3.645c0,1.026,0.274,1.929,0.827,2.703
			c0.56,0.741,1.233,1.109,2.008,1.109c0.075,0,0.154-0.004,0.233-0.01C247.735,240.593,247.826,240.583,247.926,240.571z"/>
		<path d="M258.708,220.606c0,1.187-0.435,2.213-1.299,3.08c-0.89,0.852-1.922,1.276-3.097,1.276c-1.215,0-2.256-0.433-3.117-1.296
			c-0.852-0.889-1.278-1.929-1.278-3.117c0-1.214,0.427-2.248,1.278-3.101c0.888-0.85,1.921-1.274,3.099-1.274
			c1.237,0,2.284,0.433,3.136,1.296C258.279,218.322,258.708,219.367,258.708,220.606z M258.069,247.201h-7.553v-20.302h7.553
			V247.201z"/>
		<path d="M279.686,247.201h-7.553c0.063-0.677,0.114-1.321,0.15-1.933c0.037-0.613,0.075-1.109,0.114-1.485
			c-1.303,2.553-3.05,3.832-5.24,3.832c-1.902,0-3.412-0.952-4.529-2.856c-1.1-1.89-1.652-4.507-1.652-7.85
			c0-3.231,0.571-5.773,1.711-7.626c1.14-1.88,2.692-2.818,4.659-2.818c2.016,0,3.644,1.215,4.883,3.646
			c-0.024-0.252-0.043-0.47-0.057-0.658c-0.011-0.188-0.024-0.344-0.039-0.47l-0.075-1.181l-0.055-0.902h7.683V247.201
			L279.686,247.201z M272.06,236.797c0-0.753-0.028-1.392-0.085-1.916c-0.057-0.526-0.146-0.955-0.271-1.288
			c-0.128-0.331-0.29-0.571-0.491-0.713c-0.201-0.145-0.445-0.216-0.733-0.216c-1.276,0-1.915,1.695-1.915,5.091
			c0,2.43,0.571,3.645,1.711,3.645C271.467,241.397,272.06,239.863,272.06,236.797z"/>
		<path d="M290.693,247.201h-7.532v-31.724h7.532V247.201z"/>
		<path d="M316.122,230.431h10.934v1.199c0,5.586-0.835,9.605-2.499,12.06c-1.814,2.681-4.501,4.021-8.061,4.021
			c-3.491,0-6.232-1.318-8.224-3.946c-1.978-2.655-2.969-6.297-2.969-10.932c0-4.694,0.999-8.396,2.988-11.101
			c1.99-2.705,4.713-4.058,8.169-4.058c4.586,0,7.908,2.392,9.974,7.177l-7.586,2.781c-0.114-0.916-0.37-1.64-0.78-2.17
			c-0.406-0.532-0.918-0.801-1.53-0.801c-2.151,0-3.23,2.963-3.23,8.884c0,2.518,0.237,4.349,0.715,5.484
			c0.476,1.143,1.231,1.713,2.271,1.713c0.413,0,0.789-0.104,1.128-0.301c0.338-0.201,0.622-0.483,0.854-0.845
			c0.229-0.362,0.413-0.805,0.545-1.325s0.197-1.1,0.197-1.735h-2.894v-6.106H316.122z"/>
		<path d="M348.41,237.356c0,3.133-0.863,5.626-2.595,7.478c-1.726,1.854-4.044,2.781-6.949,2.781c-2.852,0-5.125-0.946-6.817-2.84
			c-1.677-1.902-2.518-4.455-2.518-7.659c0-3.208,0.857-5.779,2.574-7.72c1.703-1.956,3.964-2.932,6.78-2.932
			c2.969,0,5.296,0.973,6.986,2.912C347.566,231.317,348.41,233.977,348.41,237.356z M341.104,237.116
			c0-0.754-0.049-1.431-0.15-2.04c-0.098-0.607-0.244-1.128-0.432-1.561c-0.188-0.431-0.412-0.766-0.676-1.004
			c-0.265-0.235-0.558-0.357-0.883-0.357c-0.638,0-1.153,0.449-1.54,1.352c-0.388,0.79-0.583,1.971-0.583,3.552
			c0,1.552,0.195,2.735,0.583,3.55c0.387,0.9,0.908,1.352,1.559,1.352c0.611,0,1.12-0.443,1.521-1.331
			C340.902,239.64,341.104,238.466,341.104,237.116z"/>
		<path d="M369.614,237.356c0,3.133-0.862,5.626-2.595,7.478c-1.726,1.854-4.044,2.781-6.946,2.781c-2.853,0-5.128-0.946-6.817-2.84
			c-1.68-1.902-2.518-4.455-2.518-7.659c0-3.208,0.855-5.779,2.571-7.72c1.706-1.956,3.966-2.932,6.78-2.932
			c2.969,0,5.296,0.973,6.986,2.912C368.772,231.317,369.614,233.977,369.614,237.356z M362.309,237.116
			c0-0.754-0.051-1.431-0.15-2.04c-0.102-0.607-0.245-1.128-0.433-1.561c-0.19-0.431-0.414-0.766-0.677-1.004
			c-0.264-0.235-0.559-0.357-0.884-0.357c-0.638,0-1.154,0.449-1.54,1.352c-0.388,0.79-0.585,1.971-0.585,3.552
			c0,1.552,0.197,2.735,0.585,3.55c0.386,0.9,0.908,1.352,1.559,1.352c0.613,0,1.121-0.443,1.521-1.331
			C362.109,239.64,362.309,238.466,362.309,237.116z"/>
		<path d="M382.95,247.201c0.014-0.211,0.028-0.455,0.04-0.733c0.011-0.274,0.031-0.594,0.055-0.955
			c0.027-0.226,0.045-0.571,0.056-1.034c-0.726,1.177-1.433,1.997-2.122,2.459c-0.677,0.452-1.508,0.678-2.497,0.678
			c-2.044,0-3.646-0.914-4.81-2.742c-1.152-1.827-1.728-4.371-1.728-7.625c0-3.419,0.563-6.065,1.69-7.946
			c1.128-1.891,2.719-2.837,4.771-2.837c1.128,0,2.036,0.252,2.723,0.754c0.729,0.5,1.429,1.369,2.105,2.608
			c-0.039-0.653-0.057-1.046-0.057-1.183l-0.075-2.046v-11.119h7.551v31.726h-7.703V247.201z M379.739,236.966
			c0,2.778,0.62,4.168,1.859,4.168c1.164,0,1.747-1.433,1.747-4.3c0-2.743-0.564-4.113-1.69-4.113
			C380.379,232.721,379.739,234.134,379.739,236.966z"/>
	</g>
	<g>
		<g id="YDTqSO.tif_6_">
			<g>
				<g>
					<path fill="#00402E" d="M144.733,177.173c3.887-0.605,7.815-1.073,11.67-1.854c15.062-3.082,29.293-8.116,37.691-22.043
						c4.403-7.317,8.369-15.362,10.308-23.607c6.86-29.24,19.971-55.256,37.678-79.253c5.663-7.678,10.578-15.905,15.839-23.876
						c0-2.269,0-4.545,0-6.807c-1.361-3.231-2.354-6.694-4.186-9.646c-3.082-4.973-7.453-5.312-11.721-1.33
						c-1.046,0.962-2.021,2.006-2.854,3.132c-10.766,14.597-21.469,29.233-32.22,43.831c-1.585,2.156-3.058,4.514-5.041,6.243
						c-3.896,3.389-8.581,2.195-10.855-2.487c-1.818-3.711-1.237-7.347,0.09-11.118c1.924-5.462,3.757-10.991,5.174-16.611
						c4.146-16.477,8.412-32.93,11.909-49.554c1.343-6.363,1.15-13.171,0.812-19.736c-0.199-3.997-2.428-7.717-6.938-8.745
						c-4.554-1.038-7.822,1.134-10.582,4.665c-5.182,6.643-8.22,13.674-10.028,21.569c-1.997,8.656-4.088,19.023-6.521,27.571
						c-1.768,6.221-2.678,11.405-4.486,17.618c-1.185,4.072-3.268,8.483-4.608,12.486c-0.862,2.622-1.092,4.793-2.924,7.828
						c-4.625-5.876-5.174-11.45-4.351-17.377c1.151-8.257,2.768-16.498,3.269-24.8c1.118-18.654,0.23-37.354,3.681-55.949
						c1.741-9.406,0.602-19.241-9.746-24.612c-1.132,0-2.277,0-3.403,0c-6.283,2.314-9.649,7.145-11.243,13.342
						c-0.703,2.728-1.111,5.553-1.42,8.354c-1.408,12.801-2.559,25.633-4.127,38.413c-1.704,13.945-5.322,26.986-5.358,41.569
						c-0.003,1.398,0.416,4.937-0.119,6.099c-1.03,2.262,1.806,2.682,0.454,4.793c-1.198-1.907-2.411-3.815-3.575-5.747
						c-0.202-0.345-0.21-0.826-0.229-1.253c-1.104-18.362-0.09-36.409-0.947-54.792c-0.293-6.327-1.417-13.05-1.789-19.368
						c-0.262-4.433-1.47-8.978-3.16-13.111c-2.607-6.356-7.321-7.295-13.001-3.321c-4.435,3.102-7.058,7.504-7.975,12.63
						c-1.141,6.394-1.565,12.907-2.31,19.368c-1.699,14.53-2.627,29.096-0.432,43.65c0.345,2.328,0.652,4.644,0.909,6.964
						c1.667,15.071,1.264,30.066-2.552,44.934c-1.44,5.612-2.91,11.315-5.291,16.56c-5.09,11.163-16.244,12.089-23.5,2.285
						c-1.018-1.367-1.935-2.809-2.812-4.26c-7.848-12.944-18.223-23.433-30.735-31.9C23.731,41.525,16.5,42.78,10.26,52.073
						c0,1.404,0,2.824,0,4.246c2.295,3.539,4.723,6.994,6.848,10.624c4.065,6.95,7.965,13.997,11.939,21.006
						c3.689,6.52,7.922,12.789,10.991,19.595c10.331,22.913,25.109,41.874,46.899,54.956c1.569,0.948,3.096,1.997,4.546,3.125
						c7.242,5.652,15.548,8.581,24.551,9.828"/>
				</g>
			</g>
		</g>
		<g>
			<path fill="#8DC63F" d="M152.625,165.74c11.839-2.418,20.672-8.729,27.053-19.322c4.096-6.791,6.716-12.808,8.032-18.377
				c4.409-18.79,15.004-32.41,26.196-46.813c2.735-3.508,5.552-7.137,8.309-10.886c3.057-4.146,5.894-8.58,8.645-12.87
				c1.226-1.916,2.448-3.832,3.7-5.726v-4.877c-0.309-0.743-0.591-1.501-0.88-2.26c-0.691-1.804-1.331-3.516-2.286-5.042
				c-1.004-1.623-2.156-2.532-3.428-2.697c-1.307-0.18-2.802,0.458-4.292,1.848c-0.869,0.818-1.581,1.579-2.138,2.345
				c-4.344,5.89-8.677,11.789-13.005,17.691c-4.171,5.665-8.324,11.331-12.502,17.002c-0.255,0.345-0.521,0.714-0.782,1.082
				c-0.99,1.412-2.028,2.863-3.355,4.026c-0.809,0.706-1.798,0.968-2.841,0.759c-3.84-0.79-7.5-7.896-8.183-9.315
				c-1.724-3.517-0.945-6.821,0.024-9.593c1.35-3.838,2.896-8.392,4.062-13.057l1.284-5.08c2.826-11.149,5.738-22.681,8.142-34.107
				c1.045-4.958,0.88-10.308,0.614-15.356c-0.163-3.111-1.912-5.349-4.702-5.987c-2.774-0.632-5.054,0.383-7.338,3.32
				c-3.562,4.562-4.755,9.887-6.019,15.521l-0.429,1.879c-1.412,6.108-3.109,12.615-5.349,20.487
				c-0.721,2.57-1.593,5.125-2.435,7.611c-0.766,2.298-1.568,4.665-2.253,7.018c-0.413,1.428-0.714,2.945-1.002,4.411
				c-0.348,1.795-0.707,3.65-1.301,5.438c-1.717,5.175-4.511,7.798-8.298,7.813h-0.496l-0.309-0.391
				c-3.268-4.162-2.617-7.595-1.938-11.24c0.144-0.773,0.302-1.584,0.424-2.434c0.521-3.756,0.449-7.897,0.383-11.885
				c-0.052-2.832-0.106-5.763,0.066-8.526c0.28-4.666,0.391-9.422,0.521-14.028c0.264-9.954,0.522-20.256,2.403-30.383
				c1.65-8.895-0.621-14.875-6.955-18.278h-2.266c-4.149,1.586-6.803,4.801-8.087,9.805c-0.474,1.817-0.817,3.816-1.108,6.461
				c-0.427,3.891-0.818,7.782-1.217,11.675c-0.632,6.146-1.28,12.509-2.042,18.753c-1.362,11.082-1.188,22.412-0.802,33.005
				c0.007,0.278,0.044,0.594,0.079,0.9c0.105,0.917,0.217,1.962-0.201,2.879c-0.609,1.345-1.442,2.555-2.247,3.733
				c-0.328,0.474-0.655,0.947-0.965,1.435l-0.206,0.315l-0.35,0.106c-1.951,0.608-3.551-0.114-4.771-2.14
				c-0.275-0.466-0.305-0.992-0.323-1.375c-0.246-4.058-0.49-8.046-0.74-12.022c-0.643-10.391-1.307-21.126-1.804-31.688
				c-0.114-2.495,0.044-5.027,0.202-7.468c0.154-2.509,0.316-5.11,0.174-7.604c-0.185-3.163-1.026-6.634-2.43-10.043
				c-0.845-2.082-1.975-3.335-3.358-3.742c-1.472-0.434-3.34,0.106-5.406,1.548c-3.159,2.216-5.2,5.447-5.895,9.34
				c-0.612,3.456-0.968,7.033-1.318,10.48c-0.158,1.6-0.319,3.2-0.499,4.794c-1.196,10.202-2.164,22.252-0.346,34.29
				c0.274,1.848,0.52,3.704,0.726,5.552c1.231,11.119,1.915,20.616-1.282,33.081c-1.135,4.417-2.311,9-4.249,13.267
				c-2.939,6.447-11.272,12.507-18.198,13.229c-3.748,0.399-6.731-0.765-8.65-3.355c-0.713-0.973-1.417-2.036-2.282-3.441
				C64.2,87.463,56.116,79.071,46.088,72.287c-3.603-2.436-6.664-3.36-9.393-2.824c-2.572,0.495-4.917,2.321-7.163,5.582v2.749
				c0.521,0.803,1.043,1.585,1.572,2.374c1.248,1.885,2.54,3.832,3.7,5.816c2.261,3.869,4.46,7.768,6.658,11.673l2.803,4.967
				c0.924,1.63,1.889,3.239,2.85,4.846c2.074,3.448,4.212,7.013,5.897,10.743l-0.932,0.421l2.789-1.243
				c-1.736-3.847-3.911-7.468-6.007-10.959c-0.955-1.591-1.908-3.186-2.821-4.802l-2.802-4.964
				c-2.203-3.914-4.407-7.82-6.675-11.698c-1.192-2.045-2.501-4.012-3.764-5.912c-0.408-0.617-0.822-1.232-1.231-1.864v-1.494
				c1.806-2.48,3.621-3.862,5.521-4.246c2.164-0.406,4.73,0.404,7.855,2.524C54.73,80.594,62.61,88.777,68.372,98.28
				c0.889,1.472,1.627,2.593,2.377,3.605c2.344,3.165,6.067,4.635,10.502,4.178c7.683-0.812,16.581-7.271,19.838-14.411
				c2.012-4.431,3.259-9.304,4.365-13.613c3.283-12.795,2.583-22.484,1.333-33.808c-0.206-1.878-0.454-3.756-0.74-5.635
				c-1.776-11.794-0.814-23.673,0.358-33.748c0.181-1.6,0.345-3.208,0.507-4.816c0.343-3.419,0.691-6.958,1.295-10.331
				c0.609-3.404,2.307-6.106,5.056-8.03c1.497-1.043,2.84-1.512,3.663-1.264c0.991,0.285,1.716,1.721,2.054,2.548
				c1.319,3.215,2.104,6.468,2.278,9.399c0.138,2.381-0.016,4.802-0.174,7.362c-0.162,2.5-0.327,5.079-0.2,7.685
				c0.492,10.585,1.153,21.329,1.804,31.719c0.249,3.974,0.495,7.963,0.736,12.006c0.026,0.488,0.063,1.398,0.612,2.322
				c2.397,3.99,5.781,3.441,7.119,3.037l1.059-0.331l0.604-0.94c0.3-0.458,0.612-0.916,0.932-1.382
				c0.853-1.248,1.735-2.54,2.42-4.043c0.649-1.418,0.483-2.878,0.365-3.95c-0.028-0.257-0.057-0.505-0.064-0.746
				c-0.379-10.51-0.553-21.742,0.786-32.689c0.77-6.257,1.414-12.63,2.046-18.781c0.398-3.886,0.79-7.776,1.217-11.654
				c0.279-2.547,0.6-4.462,1.049-6.189c1.092-4.23,3.172-6.865,6.519-8.263h1.335c5.192,2.989,6.941,8.054,5.486,15.86
				c-1.892,10.293-2.17,20.668-2.436,30.712c-0.118,4.582-0.232,9.324-0.524,13.958c-0.165,2.833-0.114,5.801-0.067,8.686
				c0.067,3.914,0.136,7.957-0.361,11.555c-0.12,0.818-0.263,1.592-0.405,2.351c-0.696,3.733-1.493,7.98,2.346,12.863l0.918,1.18
				l1.489-0.007c3.271-0.015,7.701-1.615,10.217-9.211c0.646-1.907,1.015-3.831,1.384-5.687c0.281-1.486,0.555-2.9,0.943-4.238
				c0.679-2.298,1.474-4.657,2.233-6.927c0.845-2.508,1.721-5.1,2.46-7.714c2.246-7.897,3.963-14.439,5.379-20.572l0.423-1.9
				c1.218-5.402,2.365-10.51,5.629-14.704c2.104-2.682,3.637-2.975,5.304-2.591c2.556,0.586,3.052,2.816,3.119,4.103
				c0.245,4.913,0.412,10.105-0.579,14.838c-2.398,11.382-5.306,22.892-8.126,34.025l-1.284,5.086
				c-1.156,4.575-2.683,9.068-4.012,12.871c-1.051,2.982-1.997,6.948,0.06,11.165c1.375,2.825,5.079,9.496,9.606,10.419
				c1.654,0.339,3.282-0.099,4.576-1.225c1.526-1.322,2.628-2.877,3.688-4.38c0.266-0.368,0.506-0.714,0.768-1.066
				c4.17-5.657,8.336-11.331,12.491-16.995c4.336-5.905,8.662-11.794,13.005-17.678c0.499-0.66,1.111-1.343,1.886-2.074
				c1.001-0.932,1.954-1.413,2.629-1.314c0.846,0.105,1.602,1.141,1.974,1.758c0.847,1.353,1.458,2.969,2.103,4.68
				c0.252,0.645,0.5,1.308,0.748,1.939v3.87c-1.128,1.734-2.248,3.486-3.357,5.237c-2.745,4.259-5.555,8.669-8.572,12.757
				c-2.75,3.719-5.56,7.339-8.281,10.841c-11.353,14.598-22.065,28.367-26.57,47.602c-1.264,5.364-3.817,11.19-7.803,17.798
				c-6.161,10.213-14.305,16.041-25.638,18.354l-0.226,0.061"/>
			<circle fill="#8DC63F" cx="150.945" cy="165.071" r="2.22"/>
			<path fill="#8DC63F" d="M49.611,117.178c0-1.965,1.592-3.546,3.554-3.546c1.966,0,3.558,1.581,3.558,3.546
				s-1.592,3.561-3.558,3.561C51.203,120.738,49.611,119.145,49.611,117.178z"/>
		</g>
		<g>
			<path fill="#00AE4D" d="M42.516,103.621l-2.809-4.971c-2.191-3.892-4.385-7.791-6.635-11.637
				c-1.137-1.947-2.416-3.862-3.648-5.718c-0.586-0.879-1.172-1.766-1.746-2.651l-0.166-0.255v-3.974l0.173-0.254
				c2.614-3.891,5.438-6.086,8.642-6.718c3.277-0.624,6.841,0.398,10.917,3.148c10.269,6.958,18.553,15.56,24.623,25.574
				c0.825,1.361,1.497,2.371,2.176,3.282c1.49,2.012,3.787,2.877,6.8,2.554c6.19-0.646,13.927-6.281,16.559-12.044
				c1.864-4.108,3.015-8.595,4.128-12.938c2.84-11.072,2.642-19.586,1.229-32.351c-0.202-1.825-0.443-3.65-0.718-5.477
				c-1.845-12.27-0.865-24.484,0.333-34.822c0.189-1.585,0.347-3.17,0.505-4.755c0.348-3.493,0.713-7.114,1.343-10.637
				c0.786-4.442,3.116-8.131,6.726-10.655c2.625-1.841,5.04-2.464,7.148-1.841c2.002,0.601,3.575,2.247,4.672,4.929
				c1.484,3.621,2.375,7.31,2.573,10.691c0.149,2.629-0.016,5.289-0.178,7.866c-0.15,2.381-0.308,4.846-0.2,7.243
				c0.493,10.548,1.165,21.269,1.808,31.644c0.246,3.99,0.492,7.971,0.732,11.968c0.011,0.225,0.022,0.458,0.055,0.541
				c0.718,1.196,1.333,1.437,2.069,1.308c0.257-0.383,0.516-0.773,0.782-1.157c0.793-1.15,1.54-2.239,2.074-3.417
				c0.188-0.404,0.109-1.126,0.026-1.818c-0.039-0.346-0.075-0.706-0.09-1.043c-0.383-10.675-0.56-22.109,0.819-33.326
				C134,5.68,134.645-0.662,135.276-6.807c0.398-3.891,0.797-7.79,1.22-11.675c0.3-2.75,0.658-4.838,1.157-6.77
				c1.466-5.671,4.67-9.466,9.532-11.254l0.346-0.068h2.944l0.226,0.112c7.287,3.794,10.074,10.722,8.231,20.572
				c-1.847,9.976-2.113,20.186-2.373,30.074c-0.112,4.621-0.231,9.4-0.519,14.096c-0.166,2.673-0.115,5.568-0.059,8.361
				c0.065,4.08,0.141,8.287-0.408,12.209c-0.126,0.872-0.28,1.713-0.438,2.523c-0.619,3.314-1.107,5.952,1.228,9.196
				c2.611-0.241,4.531-2.335,5.883-6.402c0.557-1.659,0.88-3.365,1.243-5.183c0.291-1.51,0.582-3.073,1.034-4.59
				c0.691-2.396,1.502-4.786,2.288-7.092c0.825-2.465,1.689-5.004,2.4-7.528c2.23-7.835,3.915-14.312,5.323-20.383l0.419-1.872
				c1.264-5.604,2.562-11.403,6.402-16.311c2.766-3.561,5.838-4.882,9.41-4.064c3.662,0.834,6.072,3.853,6.279,7.865
				c0.264,5.183,0.437,10.684-0.662,15.883c-2.41,11.471-5.336,23.013-8.159,34.191l-1.282,5.078
				c-1.194,4.732-2.753,9.346-4.129,13.231c-1.178,3.367-1.217,5.763-0.113,8.024c1.841,3.77,4.757,7.805,6.763,8.211
				c0.412,0.09,0.762-0.007,1.095-0.301c1.15-1.007,2.073-2.291,3.04-3.665c0.267-0.375,0.526-0.743,0.805-1.121
				c4.163-5.657,8.325-11.321,12.495-16.995c4.336-5.897,8.668-11.794,13.004-17.693c0.639-0.864,1.421-1.727,2.392-2.622
				c1.943-1.817,3.985-2.651,5.94-2.381c1.886,0.246,3.574,1.509,4.893,3.644c1.057,1.699,1.771,3.576,2.461,5.402
				c0.292,0.797,0.6,1.593,0.931,2.374l0.075,0.398v5.695l-0.173,0.249c-1.29,1.976-2.568,3.968-3.847,5.966
				c-2.768,4.313-5.618,8.776-8.721,12.975c-2.771,3.763-5.604,7.408-8.34,10.924c-11.066,14.24-21.517,27.67-25.829,46.022
				c-1.353,5.793-4.054,11.995-8.256,18.975c-6.695,11.097-15.965,17.724-28.325,20.241c-5.738,1.632-11.194,2.271-16.175,2.271
				c-15.182,0-25.997-5.817-27.527-6.689l-1.003,1.774c1.585,0.896,12.805,6.936,28.559,6.936c5.141,0,10.751-0.646,16.674-2.321
				c12.888-2.651,22.546-9.572,29.54-21.152c4.306-7.171,7.1-13.572,8.495-19.564c4.213-17.929,14.529-31.195,25.455-45.237
				c2.743-3.531,5.582-7.189,8.38-10.968c3.133-4.246,6.017-8.745,8.795-13.096c1.277-1.99,2.531-3.966,3.825-5.927l0.511-0.767
				v-6.925l-0.24-0.562c-0.316-0.759-0.617-1.532-0.902-2.307c-0.721-1.907-1.475-3.898-2.629-5.754
				c-2.089-3.368-4.614-4.352-6.358-4.575c-1.786-0.256-4.558,0.067-7.594,2.899c-1.066,0.984-1.932,1.937-2.644,2.908
				c-4.351,5.891-8.677,11.788-13.013,17.693c-4.163,5.657-8.325,11.33-12.501,16.994c-0.272,0.376-0.549,0.766-0.82,1.142
				c-0.787,1.126-1.547,2.187-2.382,3.005c-1.075-0.684-3.253-3.343-5.017-6.972c-0.854-1.729-0.785-3.608,0.211-6.446
				c1.372-3.929,2.957-8.602,4.168-13.411l1.284-5.08c2.828-11.188,5.756-22.764,8.183-34.266c1.136-5.447,0.97-11.09,0.697-16.407
				c-0.257-4.965-3.268-8.693-7.856-9.744c-4.358-0.992-8.221,0.608-11.473,4.793c-4.118,5.266-5.472,11.292-6.776,17.122
				l-0.414,1.864c-1.402,6.031-3.085,12.478-5.308,20.276c-0.697,2.48-1.557,4.989-2.371,7.422
				c-0.781,2.336-1.594,4.748-2.315,7.175c-0.465,1.615-0.771,3.231-1.083,4.785c-0.339,1.736-0.662,3.388-1.162,4.92
				c-0.978,2.93-2.057,4.17-3.02,4.688c-1-1.991-0.67-3.733-0.158-6.461c0.158-0.841,0.323-1.721,0.443-2.63
				c0.572-4.064,0.504-8.361,0.429-12.508c-0.045-2.886-0.098-5.612,0.061-8.219c0.286-4.732,0.419-9.52,0.538-14.155
				c0.24-9.804,0.513-19.947,2.331-29.759c2.501-13.502-3.674-19.813-9.311-22.741l-0.65-0.345h-3.99l-0.515,0.189
				c-5.521,2.043-9.154,6.303-10.796,12.667c-0.522,2.021-0.891,4.199-1.206,7.046c-0.423,3.899-0.825,7.8-1.224,11.691
				c-0.621,6.138-1.269,12.472-2.031,18.669c-1.386,11.368-1.22,22.884-0.822,33.658c0.007,0.391,0.052,0.797,0.1,1.203
				c0.031,0.277,0.075,0.676,0.071,0.887c-0.301,0.631-0.683,1.26-1.111,1.907c-0.21-3.531-0.434-7.049-0.651-10.58
				c-0.641-10.352-1.311-21.074-1.804-31.613c-0.11-2.278,0.044-4.582,0.196-7.025c0.166-2.63,0.335-5.348,0.177-8.1
				c-0.209-3.606-1.156-7.528-2.724-11.352c-1.671-4.087-4.178-5.575-5.98-6.101c-1.883-0.556-4.95-0.639-8.89,2.12
				c-4.061,2.848-6.676,6.979-7.563,11.959c-0.645,3.606-1.015,7.258-1.363,10.79c-0.162,1.584-0.316,3.156-0.5,4.727
				c-1.221,10.481-2.208,22.868-0.321,35.355c0.269,1.81,0.505,3.601,0.706,5.403c1.387,12.531,1.578,20.862-1.18,31.621
				c-1.093,4.251-2.216,8.656-4.01,12.599c-2.33,5.109-9.439,10.295-14.917,10.87c-3.381,0.363-4.565-1.217-4.948-1.741
				c-0.641-0.854-1.277-1.823-2.066-3.132c-6.22-10.265-14.719-19.077-25.232-26.196c-4.545-3.073-8.614-4.199-12.445-3.456
				c-3.764,0.735-7.014,3.215-9.944,7.573l-0.52,0.767v5.206l0.489,0.742c0.586,0.902,1.17,1.788,1.766,2.676
				c1.273,1.915,2.48,3.726,3.583,5.612c2.247,3.846,4.433,7.73,6.611,11.607l2.817,4.989"/>
			<circle fill="#00AE4D" cx="41.524" cy="104.036" r="2.218"/>
			<path fill="#00AE4D" d="M105.356,163.733c0-1.963,1.593-3.553,3.555-3.553s3.55,1.59,3.55,3.553c0,1.975-1.588,3.554-3.55,3.554
				S105.356,165.708,105.356,163.733z"/>
		</g>
		<g>
			<g>
				<path fill="#FFDE17" d="M139.785,141.999c-20.372,0-41.746-7.482-58.535-16.959c-0.777-0.62-1.48-1.026-2.247-1.29l0.68-1.925
					c0.992,0.355,1.912,0.872,2.724,1.549c26.004,14.673,63.439,24.554,90.081,8.01c5.445-3.381,9.491-9.814,10.554-16.793
					c0.939-6.145-0.572-11.86-4.229-16.091c-7.743-8.97-22.607-4.96-32.975,1.192l-1.143-1.674c1.502-1.179,2.278-2.142,2.382-2.575
					c0.284-1.243,0.645-2.473,1.006-3.704c1.471-5.101,2.859-9.918-0.829-14.531c-3.779-4.712-12.202-5.897-18.152-4.328
					c-9.659,2.546-11.006,9.436-12.568,17.408c-0.678,3.471-1.378,7.062-2.82,10.506c-1.951,4.64-5.98,8.134-11.671,10.111
					c-9.226,3.215-22.185,2.079-30.819-2.676c-2.708-1.494-4.894-4.784-7.419-8.588c-2.041-3.058-4.342-6.522-7.348-9.752
					c-6.006-6.438-11.548-11.217-15.608-13.456c-0.612-0.338-1.706-0.307-2.721,0.06c-0.577,0.217-1.07,0.526-1.351,0.841
					c3.842,7.084,11.584,19.759,16.198,26.106l-1.645,1.195c-4.766-6.565-12.847-19.813-16.615-26.828L34.5,77.402l0.166-0.443
					c0.375-1.007,1.386-1.855,2.768-2.366c1.236-0.465,3.048-0.683,4.4,0.061C47.558,77.809,54.388,84.682,57.95,88.5
					c3.124,3.35,5.477,6.891,7.549,10.015c2.381,3.584,4.441,6.679,6.713,7.927c8.175,4.515,20.443,5.575,29.167,2.539
					c5.125-1.792,8.739-4.885,10.458-8.98c1.359-3.247,2.046-6.738,2.709-10.11c1.619-8.279,3.151-16.1,14.034-18.977
					c6.586-1.75,15.957-0.339,20.263,5.026c4.356,5.423,2.749,10.992,1.191,16.364c-0.323,1.104-0.646,2.215-0.917,3.33
					c10.577-5.056,23.726-7.145,31.229,1.54c4.057,4.688,5.736,10.991,4.704,17.722c-1.149,7.562-5.56,14.53-11.495,18.23
					C163.415,139.408,151.768,141.999,139.785,141.999z"/>
			</g>
			<g>
				<path fill="#FFDE17" d="M54.934,105.231c0,1.233-0.991,2.213-2.212,2.213c-1.229,0-2.219-0.983-2.219-2.213
					c0-1.227,0.991-2.215,2.219-2.215C53.943,103.015,54.934,104.005,54.934,105.231z"/>
			</g>
			<g>
				<path fill="#FFDE17" d="M81.562,122.788c0,1.228-0.996,2.217-2.22,2.217c-1.225,0-2.216-0.993-2.216-2.217
					c0-1.233,0.991-2.221,2.216-2.221C80.567,120.565,81.562,121.555,81.562,122.788z"/>
			</g>
		</g>
	</g>
</g>
</svg>
