<?xml version="1.0" encoding="utf-8"?>
<!-- Generator: Adobe Illustrator 16.0.0, SVG Export Plug-In . SVG Version: 6.00 Build 0)  -->
<!DOCTYPE svg PUBLIC "-//W3C//DTD SVG 1.1//EN" "http://www.w3.org/Graphics/SVG/1.1/DTD/svg11.dtd">
<svg version="1.1" id="Layer_1" xmlns="http://www.w3.org/2000/svg" xmlns:xlink="http://www.w3.org/1999/xlink" x="0px" y="0px"
	 width="268.16px" height="175px" viewBox="0 0 268.16 175" enable-background="new 0 0 268.16 175" xml:space="preserve">
<g>
	<text transform="matrix(1 0 0 1 0 169.3501)" font-family="'Futura-CondensedExtraBold'" font-size="19.9795">New York Tech for Social Good</text>
	<g>
		<g id="YDTqSO.tif_6_">
			<g>
				<g>
					<path fill="#00402E" d="M139.69,132.977c2.018-0.316,4.059-0.558,6.061-0.964c7.823-1.6,15.215-4.215,19.577-11.449
						c2.287-3.801,4.347-7.98,5.354-12.261c3.563-15.188,10.372-28.701,19.57-41.165c2.942-3.988,5.494-8.261,8.226-12.401
						c0-1.179,0-2.361,0-3.536c-0.706-1.678-1.222-3.477-2.174-5.01c-1.6-2.583-3.871-2.759-6.087-0.691
						c-0.543,0.5-1.05,1.042-1.483,1.627c-5.592,7.582-11.152,15.184-16.736,22.766c-0.823,1.12-1.588,2.345-2.618,3.243
						c-2.025,1.76-4.457,1.14-5.639-1.292c-0.944-1.928-0.641-3.816,0.047-5.775c0.999-2.837,1.951-5.709,2.688-8.628
						c2.154-8.558,4.37-17.104,6.185-25.739c0.699-3.305,0.598-6.841,0.422-10.251c-0.105-2.076-1.261-4.008-3.605-4.542
						c-2.365-0.539-4.062,0.589-5.495,2.423c-2.692,3.45-4.269,7.102-5.209,11.203c-1.038,4.496-2.123,9.881-3.388,14.321
						c-0.917,3.231-1.389,5.924-2.329,9.151c-0.616,2.115-1.697,4.406-2.393,6.485c-0.448,1.362-0.569,2.49-1.518,4.066
						c-2.403-3.052-2.688-5.947-2.26-9.026c0.598-4.289,1.437-8.569,1.698-12.881c0.581-9.689,0.12-19.402,1.912-29.06
						c0.905-4.886,0.312-9.994-5.062-12.784c-0.589,0-1.183,0-1.768,0c-3.263,1.202-5.011,3.711-5.84,6.93
						c-0.365,1.417-0.577,2.884-0.737,4.339c-0.732,6.649-1.329,13.314-2.143,19.952c-0.886,7.243-2.765,14.017-2.784,21.591
						c-0.002,0.726,0.216,2.564-0.062,3.168c-0.535,1.175,0.938,1.393,0.236,2.49c-0.622-0.991-1.252-1.982-1.857-2.985
						c-0.105-0.179-0.109-0.429-0.119-0.651c-0.574-9.537-0.047-18.911-0.492-28.459c-0.152-3.286-0.736-6.778-0.929-10.06
						c-0.136-2.302-0.763-4.663-1.641-6.81c-1.354-3.301-3.803-3.789-6.753-1.725c-2.304,1.611-3.666,3.898-4.142,6.56
						c-0.593,3.321-0.813,6.704-1.2,10.06c-0.882,7.547-1.364,15.113-0.224,22.672c0.179,1.209,0.339,2.412,0.472,3.617
						c0.866,7.828,0.657,15.617-1.325,23.339c-0.748,2.915-1.512,5.877-2.748,8.601c-2.644,5.799-8.437,6.279-12.206,1.187
						c-0.529-0.71-1.005-1.459-1.461-2.213c-4.076-6.723-9.465-12.171-15.964-16.569c-4.907-3.321-8.663-2.669-11.904,2.158
						c0,0.729,0,1.467,0,2.205c1.192,1.838,2.453,3.633,3.557,5.518c2.111,3.61,4.137,7.27,6.201,10.911
						c1.916,3.387,4.115,6.642,5.709,10.177c5.366,11.902,13.042,21.751,24.36,28.545c0.815,0.492,1.608,1.038,2.361,1.623
						c3.762,2.935,8.076,4.457,12.752,5.104"/>
				</g>
			</g>
		</g>
		<g>
			<path fill="#8DC63F" d="M143.788,127.038c6.149-1.256,10.738-4.534,14.052-10.036c2.127-3.527,3.488-6.653,4.171-9.545
				c2.291-9.76,7.793-16.834,13.607-24.315c1.421-1.822,2.884-3.707,4.316-5.654c1.588-2.154,3.062-4.457,4.491-6.685
				c0.636-0.995,1.272-1.99,1.92-2.974v-2.533c-0.16-0.386-0.305-0.78-0.457-1.174c-0.358-0.937-0.69-1.826-1.186-2.619
				c-0.52-0.843-1.12-1.315-1.78-1.401c-0.679-0.093-1.455,0.238-2.228,0.96c-0.453,0.425-0.823,0.82-1.112,1.218
				c-2.256,3.059-4.507,6.123-6.755,9.189c-2.166,2.942-4.323,5.885-6.493,8.831c-0.133,0.179-0.27,0.371-0.406,0.562
				c-0.515,0.733-1.054,1.487-1.744,2.091c-0.421,0.367-0.933,0.503-1.475,0.394c-1.994-0.41-3.895-4.101-4.25-4.838
				c-0.894-1.827-0.491-3.543,0.012-4.983c0.702-1.994,1.503-4.359,2.111-6.782l0.667-2.638c1.468-5.791,2.981-11.781,4.23-17.716
				c0.542-2.575,0.456-5.354,0.319-7.976c-0.085-1.616-0.994-2.778-2.442-3.11c-1.443-0.328-2.626,0.199-3.812,1.725
				c-1.85,2.369-2.47,5.135-3.126,8.062l-0.222,0.976c-0.734,3.172-1.616,6.552-2.779,10.641c-0.374,1.335-0.827,2.662-1.264,3.953
				c-0.398,1.194-0.815,2.423-1.171,3.645c-0.215,0.742-0.371,1.53-0.519,2.291c-0.18,0.933-0.367,1.896-0.676,2.825
				c-0.89,2.688-2.341,4.05-4.308,4.058h-0.258l-0.16-0.203c-1.697-2.162-1.361-3.945-1.007-5.838
				c0.074-0.402,0.156-0.823,0.219-1.264c0.27-1.951,0.234-4.102,0.199-6.173c-0.027-1.471-0.055-2.993,0.035-4.429
				c0.145-2.423,0.203-4.894,0.27-7.286c0.136-5.17,0.272-10.521,1.248-15.781c0.858-4.62-0.323-7.726-3.613-9.494h-1.175
				c-2.157,0.824-3.535,2.494-4.202,5.093c-0.246,0.944-0.424,1.982-0.576,3.356c-0.22,2.021-0.425,4.042-0.632,6.064
				c-0.328,3.192-0.665,6.497-1.06,9.74c-0.708,5.756-0.616,11.641-0.417,17.143c0.004,0.145,0.023,0.309,0.041,0.468
				c0.055,0.476,0.113,1.019-0.104,1.495c-0.316,0.699-0.749,1.327-1.167,1.939c-0.17,0.246-0.34,0.492-0.501,0.745l-0.107,0.164
				l-0.182,0.055c-1.013,0.316-1.844-0.059-2.478-1.112c-0.143-0.242-0.158-0.515-0.168-0.714c-0.127-2.107-0.254-4.179-0.384-6.244
				c-0.334-5.397-0.679-10.973-0.937-16.459c-0.059-1.296,0.023-2.611,0.105-3.879c0.08-1.303,0.164-2.654,0.09-3.949
				c-0.096-1.643-0.533-3.446-1.262-5.217c-0.439-1.081-1.026-1.732-1.744-1.943c-0.765-0.226-1.735,0.055-2.808,0.804
				c-1.641,1.151-2.701,2.829-3.062,4.851c-0.318,1.795-0.503,3.653-0.685,5.444c-0.082,0.831-0.166,1.662-0.259,2.49
				c-0.621,5.299-1.124,11.558-0.18,17.81c0.143,0.96,0.27,1.924,0.377,2.884c0.64,5.775,0.995,10.708-0.666,17.182
				c-0.589,2.294-1.2,4.675-2.207,6.891c-1.526,3.349-5.855,6.497-9.452,6.872c-1.947,0.207-3.496-0.398-4.493-1.744
				c-0.371-0.504-0.736-1.058-1.185-1.787c-3.069-5.073-7.268-9.432-12.477-12.956c-1.871-1.265-3.461-1.745-4.878-1.467
				c-1.336,0.257-2.554,1.206-3.721,2.899v1.428c0.271,0.417,0.542,0.823,0.817,1.233c0.648,0.979,1.319,1.99,1.922,3.021
				c1.174,2.009,2.316,4.035,3.458,6.063l1.456,2.58c0.48,0.847,0.981,1.682,1.48,2.517c1.077,1.791,2.188,3.641,3.063,5.58
				l-0.484,0.219l1.448-0.647c-0.901-1.998-2.031-3.879-3.12-5.693c-0.496-0.827-0.991-1.655-1.465-2.494l-1.456-2.579
				c-1.144-2.033-2.289-4.062-3.467-6.076c-0.619-1.062-1.299-2.084-1.955-3.071c-0.212-0.32-0.427-0.64-0.64-0.968v-0.776
				c0.938-1.288,1.881-2.006,2.868-2.205c1.124-0.211,2.457,0.21,4.08,1.311c5.083,3.438,9.176,7.688,12.169,12.624
				c0.462,0.765,0.845,1.347,1.235,1.873c1.217,1.643,3.151,2.408,5.455,2.17c3.99-0.422,8.612-3.777,10.304-7.485
				c1.045-2.302,1.693-4.834,2.267-7.071c1.705-6.646,1.342-11.679,0.692-17.56c-0.107-0.976-0.236-1.951-0.384-2.927
				c-0.923-6.126-0.423-12.296,0.186-17.529c0.094-0.831,0.179-1.666,0.263-2.501c0.178-1.776,0.359-3.614,0.673-5.366
				c0.316-1.768,1.198-3.172,2.626-4.171c0.777-0.542,1.475-0.785,1.902-0.656c0.515,0.148,0.892,0.894,1.067,1.323
				c0.685,1.67,1.093,3.36,1.183,4.882c0.072,1.237-0.008,2.494-0.09,3.824c-0.084,1.299-0.17,2.638-0.104,3.992
				c0.255,5.498,0.599,11.078,0.937,16.475c0.129,2.064,0.257,4.136,0.382,6.236c0.014,0.253,0.033,0.726,0.318,1.206
				c1.245,2.072,3.003,1.787,3.698,1.577l0.55-0.172l0.314-0.488c0.156-0.238,0.318-0.476,0.484-0.718
				c0.443-0.648,0.901-1.319,1.257-2.1c0.337-0.737,0.251-1.495,0.19-2.052c-0.014-0.133-0.029-0.262-0.033-0.387
				c-0.198-5.459-0.287-11.293,0.408-16.979c0.4-3.25,0.735-6.56,1.063-9.755c0.207-2.018,0.411-4.039,0.632-6.053
				c0.146-1.323,0.312-2.318,0.545-3.215c0.567-2.197,1.648-3.566,3.385-4.292h0.694c2.697,1.553,3.606,4.183,2.849,8.238
				c-0.983,5.346-1.127,10.735-1.264,15.952c-0.062,2.38-0.121,4.843-0.273,7.25c-0.086,1.471-0.059,3.013-0.035,4.511
				c0.035,2.033,0.07,4.133-0.188,6.002c-0.062,0.425-0.137,0.827-0.211,1.221c-0.362,1.939-0.776,4.145,1.218,6.681l0.477,0.613
				l0.772-0.004c1.701-0.008,4-0.839,5.307-4.784c0.336-0.991,0.527-1.99,0.719-2.954c0.147-0.772,0.288-1.506,0.491-2.201
				c0.352-1.194,0.765-2.419,1.159-3.598c0.44-1.303,0.894-2.649,1.279-4.007c1.167-4.102,2.057-7.5,2.794-10.685l0.219-0.987
				c0.633-2.806,1.229-5.459,2.923-7.637c1.093-1.393,1.889-1.545,2.755-1.346c1.327,0.305,1.585,1.463,1.62,2.131
				c0.128,2.552,0.214,5.249-0.301,7.707c-1.245,5.912-2.755,11.89-4.219,17.673l-0.667,2.642c-0.601,2.376-1.393,4.71-2.084,6.685
				c-0.546,1.549-1.038,3.609,0.031,5.799c0.714,1.467,2.638,4.932,4.991,5.412c0.858,0.176,1.705-0.051,2.376-0.636
				c0.793-0.687,1.366-1.495,1.916-2.275c0.137-0.191,0.262-0.371,0.398-0.554c2.166-2.938,4.331-5.885,6.489-8.827
				c2.252-3.067,4.499-6.126,6.755-9.182c0.258-0.343,0.577-0.698,0.979-1.077c0.52-0.484,1.015-0.734,1.366-0.683
				c0.44,0.055,0.831,0.593,1.026,0.913c0.44,0.703,0.757,1.542,1.092,2.431c0.129,0.335,0.258,0.679,0.387,1.007v2.01
				c-0.585,0.901-1.167,1.811-1.744,2.72c-1.425,2.212-2.884,4.503-4.452,6.626c-1.429,1.932-2.888,3.812-4.301,5.631
				c-5.896,7.582-11.461,14.735-13.802,24.725c-0.656,2.786-1.982,5.811-4.051,9.244c-3.2,5.304-7.43,8.332-13.318,9.533
				l-0.117,0.031"/>
			<circle fill="#8DC63F" cx="142.916" cy="126.691" r="1.153"/>
			<path fill="#8DC63F" d="M90.282,101.814c0-1.019,0.827-1.842,1.846-1.842c1.021,0,1.848,0.823,1.848,1.842
				c0,1.022-0.827,1.85-1.848,1.85C91.109,103.664,90.282,102.836,90.282,101.814z"/>
		</g>
		<g>
			<path fill="#00AE4D" d="M86.597,94.774l-1.459-2.583c-1.138-2.021-2.277-4.047-3.446-6.044c-0.591-1.011-1.255-2.006-1.895-2.97
				c-0.305-0.457-0.609-0.917-0.907-1.377l-0.086-0.133v-2.064l0.09-0.132c1.358-2.021,2.825-3.161,4.489-3.489
				c1.702-0.324,3.553,0.207,5.67,1.635c5.334,3.614,9.637,8.082,12.79,13.283c0.428,0.707,0.777,1.233,1.13,1.705
				c0.774,1.046,1.967,1.495,3.532,1.327c3.215-0.336,7.234-3.262,8.601-6.255c0.968-2.134,1.566-4.464,2.144-6.72
				c1.475-5.751,1.372-10.173,0.638-16.803c-0.105-0.948-0.23-1.896-0.373-2.845c-0.958-6.373-0.449-12.717,0.173-18.087
				c0.098-0.823,0.18-1.647,0.262-2.47c0.181-1.814,0.371-3.695,0.698-5.525c0.408-2.307,1.618-4.223,3.493-5.534
				c1.364-0.956,2.618-1.28,3.713-0.956c1.04,0.312,1.857,1.167,2.427,2.56c0.771,1.881,1.233,3.797,1.336,5.553
				c0.078,1.366-0.008,2.747-0.092,4.086c-0.078,1.237-0.16,2.517-0.104,3.762c0.256,5.479,0.605,11.047,0.939,16.436
				c0.128,2.072,0.255,4.14,0.38,6.216c0.006,0.117,0.012,0.238,0.029,0.281c0.373,0.621,0.692,0.746,1.075,0.679
				c0.133-0.199,0.268-0.402,0.406-0.601c0.412-0.597,0.8-1.163,1.077-1.775c0.098-0.21,0.057-0.585,0.014-0.944
				c-0.02-0.18-0.039-0.367-0.047-0.542c-0.199-5.545-0.291-11.484,0.425-17.31c0.395-3.235,0.73-6.529,1.058-9.721
				c0.207-2.021,0.414-4.046,0.634-6.064c0.156-1.428,0.342-2.513,0.6-3.516c0.763-2.946,2.427-4.917,4.952-5.846l0.179-0.035h1.53
				l0.117,0.058c3.785,1.971,5.232,5.569,4.276,10.685c-0.96,5.182-1.097,10.485-1.233,15.621c-0.058,2.4-0.12,4.882-0.269,7.321
				c-0.086,1.389-0.059,2.892-0.031,4.343c0.035,2.119,0.074,4.304-0.211,6.341c-0.066,0.453-0.145,0.89-0.227,1.311
				c-0.323,1.721-0.577,3.091,0.637,4.776c1.357-0.125,2.353-1.213,3.055-3.325c0.289-0.862,0.457-1.748,0.645-2.692
				c0.152-0.784,0.304-1.596,0.538-2.384c0.359-1.245,0.78-2.486,1.187-3.684c0.429-1.28,0.878-2.599,1.249-3.91
				c1.158-4.07,2.032-7.434,2.763-10.587l0.218-0.972c0.656-2.911,1.331-5.923,3.325-8.472c1.436-1.85,3.032-2.536,4.886-2.111
				c1.904,0.433,3.156,2.001,3.262,4.085c0.137,2.692,0.227,5.549-0.343,8.25c-1.253,5.958-2.771,11.953-4.238,17.759l-0.667,2.638
				c-0.62,2.458-1.429,4.854-2.143,6.872c-0.612,1.749-0.632,2.993-0.059,4.168c0.956,1.958,2.471,4.054,3.513,4.265
				c0.214,0.047,0.394-0.004,0.569-0.156c0.597-0.523,1.077-1.19,1.58-1.904c0.137-0.195,0.273-0.386,0.418-0.582
				c2.162-2.938,4.323-5.88,6.489-8.827c2.252-3.063,4.503-6.126,6.755-9.19c0.332-0.449,0.737-0.897,1.241-1.362
				c1.011-0.944,2.071-1.377,3.086-1.237c0.979,0.128,1.857,0.784,2.541,1.893c0.55,0.882,0.921,1.857,1.279,2.806
				c0.152,0.414,0.312,0.827,0.484,1.233l0.039,0.207v2.958l-0.09,0.129c-0.671,1.026-1.335,2.061-1.998,3.099
				c-1.437,2.24-2.919,4.558-4.53,6.739c-1.44,1.955-2.911,3.848-4.332,5.674c-5.748,7.395-11.176,14.372-13.416,23.905
				c-0.702,3.008-2.106,6.231-4.288,9.856c-3.477,5.764-8.292,9.206-14.712,10.513c-2.98,0.847-5.814,1.179-8.401,1.179
				c-7.886,0-13.503-3.021-14.298-3.473l-0.521,0.921c0.823,0.464,6.651,3.602,14.834,3.602c2.669,0,5.584-0.336,8.659-1.206
				c6.696-1.377,11.711-4.972,15.344-10.988c2.236-3.723,3.688-7.048,4.413-10.162c2.189-9.311,7.547-16.202,13.221-23.495
				c1.425-1.834,2.899-3.734,4.352-5.697c1.627-2.205,3.126-4.542,4.569-6.802c0.663-1.034,1.315-2.06,1.986-3.079l0.266-0.398
				v-3.598l-0.125-0.292c-0.164-0.394-0.32-0.796-0.469-1.198c-0.374-0.991-0.765-2.025-1.365-2.989
				c-1.085-1.749-2.396-2.26-3.302-2.376c-0.929-0.133-2.368,0.035-3.945,1.506c-0.554,0.511-1.003,1.006-1.373,1.51
				c-2.26,3.06-4.507,6.123-6.759,9.19c-2.162,2.938-4.324,5.885-6.493,8.827c-0.141,0.195-0.285,0.398-0.426,0.593
				c-0.409,0.585-0.804,1.136-1.237,1.561c-0.558-0.355-1.689-1.736-2.606-3.621c-0.444-0.898-0.409-1.874,0.109-3.348
				c0.714-2.041,1.537-4.468,2.166-6.966l0.667-2.638c1.468-5.811,2.989-11.824,4.25-17.798c0.589-2.829,0.503-5.76,0.362-8.522
				c-0.133-2.579-1.697-4.515-4.081-5.061c-2.264-0.515-4.27,0.316-5.959,2.49c-2.139,2.735-2.841,5.865-3.52,8.893l-0.215,0.968
				c-0.727,3.133-1.601,6.481-2.755,10.532c-0.363,1.288-0.809,2.591-1.233,3.855c-0.406,1.213-0.827,2.466-1.202,3.727
				c-0.242,0.839-0.401,1.678-0.562,2.485c-0.176,0.902-0.344,1.76-0.605,2.556c-0.507,1.522-1.068,2.166-1.568,2.435
				c-0.519-1.034-0.348-1.939-0.082-3.356c0.082-0.437,0.168-0.894,0.23-1.366c0.297-2.111,0.262-4.343,0.223-6.497
				c-0.023-1.499-0.051-2.915,0.031-4.269c0.148-2.458,0.218-4.944,0.28-7.352c0.125-5.092,0.266-10.36,1.21-15.457
				c1.3-7.013-1.908-10.291-4.835-11.812l-0.339-0.179h-2.072l-0.266,0.098c-2.868,1.061-4.755,3.274-5.609,6.579
				c-0.27,1.05-0.462,2.181-0.626,3.66c-0.22,2.025-0.429,4.051-0.636,6.072c-0.322,3.188-0.659,6.478-1.055,9.697
				c-0.72,5.904-0.634,11.886-0.427,17.482c0.004,0.203,0.027,0.414,0.052,0.625c0.016,0.144,0.039,0.351,0.037,0.46
				c-0.156,0.328-0.355,0.655-0.577,0.991c-0.109-1.834-0.225-3.661-0.338-5.495c-0.333-5.377-0.681-10.946-0.937-16.42
				c-0.057-1.183,0.023-2.38,0.102-3.649c0.086-1.366,0.174-2.778,0.092-4.207c-0.109-1.873-0.601-3.91-1.415-5.896
				c-0.868-2.123-2.17-2.896-3.106-3.169c-0.978-0.289-2.571-0.332-4.618,1.101c-2.109,1.479-3.467,3.625-3.928,6.212
				c-0.335,1.873-0.527,3.77-0.708,5.604c-0.084,0.823-0.164,1.639-0.26,2.455c-0.634,5.444-1.147,11.878-0.167,18.364
				c0.14,0.94,0.263,1.87,0.367,2.806c0.72,6.509,0.819,10.836-0.613,16.424c-0.568,2.208-1.151,4.496-2.083,6.544
				c-1.21,2.654-4.903,5.347-7.748,5.646c-1.756,0.188-2.371-0.632-2.57-0.905c-0.333-0.444-0.663-0.948-1.073-1.627
				c-3.231-5.331-7.645-9.908-13.106-13.607c-2.361-1.596-4.474-2.181-6.464-1.795c-1.955,0.382-3.643,1.67-5.165,3.934l-0.27,0.398
				v2.704L78,82.373c0.304,0.469,0.608,0.929,0.917,1.39c0.661,0.995,1.288,1.935,1.861,2.915c1.167,1.998,2.302,4.015,3.434,6.029
				l1.463,2.592"/>
			<circle fill="#00AE4D" cx="86.082" cy="94.989" r="1.152"/>
			<path fill="#00AE4D" d="M119.237,125.996c0-1.019,0.827-1.846,1.846-1.846s1.844,0.827,1.844,1.846
				c0,1.026-0.825,1.846-1.844,1.846S119.237,127.022,119.237,125.996z"/>
		</g>
		<g>
			<g>
				<path fill="#FFDE17" d="M137.119,114.707c-10.581,0-21.683-3.887-30.403-8.808c-0.404-0.323-0.769-0.534-1.167-0.671
					l0.353-0.999c0.515,0.184,0.993,0.453,1.415,0.804c13.506,7.621,32.95,12.753,46.788,4.16c2.829-1.756,4.929-5.097,5.482-8.722
					c0.488-3.191-0.297-6.161-2.197-8.358c-4.022-4.659-11.741-2.576-17.127,0.62l-0.593-0.87c0.78-0.612,1.183-1.112,1.237-1.338
					c0.148-0.644,0.335-1.284,0.522-1.924c0.765-2.649,1.487-5.151-0.429-7.547c-1.963-2.447-6.338-3.063-9.428-2.248
					c-5.017,1.323-5.717,4.901-6.528,9.042c-0.352,1.803-0.716,3.668-1.465,5.456c-1.013,2.411-3.106,4.226-6.062,5.252
					c-4.792,1.67-11.523,1.081-16.007-1.389c-1.407-0.777-2.542-2.486-3.854-4.461c-1.06-1.588-2.255-3.387-3.816-5.065
					c-3.12-3.344-5.998-5.826-8.107-6.989c-0.318-0.176-0.886-0.16-1.413,0.031c-0.3,0.113-0.556,0.273-0.702,0.437
					c1.996,3.68,6.017,10.263,8.413,13.56l-0.854,0.621c-2.476-3.411-6.673-10.291-8.63-13.935l-0.113-0.211l0.086-0.23
					c0.195-0.523,0.72-0.964,1.438-1.229c0.642-0.242,1.583-0.355,2.285,0.031c2.974,1.639,6.521,5.209,8.371,7.192
					c1.623,1.74,2.845,3.579,3.921,5.202c1.237,1.861,2.307,3.469,3.487,4.117c4.246,2.345,10.618,2.896,15.15,1.318
					c2.662-0.929,4.539-2.536,5.432-4.663c0.706-1.686,1.063-3.5,1.407-5.252c0.841-4.3,1.637-8.362,7.29-9.857
					c3.42-0.909,8.288-0.176,10.524,2.611c2.263,2.817,1.428,5.709,0.62,8.499c-0.168,0.574-0.336,1.151-0.476,1.729
					c5.494-2.626,12.323-3.711,16.221,0.8c2.107,2.435,2.978,5.709,2.443,9.205c-0.597,3.926-2.888,7.547-5.971,9.467
					C149.392,113.361,143.343,114.707,137.119,114.707z"/>
			</g>
			<g>
				<path fill="#FFDE17" d="M93.047,95.609c0,0.641-0.515,1.151-1.149,1.151c-0.638,0-1.153-0.511-1.153-1.151
					c0-0.636,0.515-1.15,1.153-1.15C92.532,94.458,93.047,94.973,93.047,95.609z"/>
			</g>
			<g>
				<path fill="#FFDE17" d="M106.878,104.729c0,0.636-0.517,1.151-1.153,1.151c-0.636,0-1.151-0.516-1.151-1.151
					c0-0.641,0.515-1.155,1.151-1.155C106.361,103.574,106.878,104.088,106.878,104.729z"/>
			</g>
		</g>
	</g>
</g>
</svg>
