<?xml version="1.0" encoding="utf-8"?>
<!-- Generator: Adobe Illustrator 16.0.0, SVG Export Plug-In . SVG Version: 6.00 Build 0)  -->
<!DOCTYPE svg PUBLIC "-//W3C//DTD SVG 1.1//EN" "http://www.w3.org/Graphics/SVG/1.1/DTD/svg11.dtd">
<svg version="1.1" id="Layer_1" xmlns="http://www.w3.org/2000/svg" xmlns:xlink="http://www.w3.org/1999/xlink" x="0px" y="0px"
	 width="268.16px" height="175px" viewBox="0 0 268.16 175" enable-background="new 0 0 268.16 175" xml:space="preserve">
<g>
	<g enable-background="new    ">
		<path d="M1.054,169.35v-15.062h3.883l2.039,5.287c0.111,0.312,0.236,0.67,0.376,1.073c0.14,0.403,0.294,0.868,0.463,1.396
			l0.419,1.326c-0.15-1.307-0.264-2.426-0.342-3.355c-0.078-0.93-0.117-1.711-0.117-2.342v-3.385h3.883v15.062H7.775l-2.049-5.541
			c-0.215-0.592-0.408-1.146-0.581-1.663c-0.172-0.518-0.324-1.01-0.454-1.479c0.084,1.061,0.146,1.983,0.186,2.771
			s0.059,1.477,0.059,2.068v3.844H1.054z"/>
		<path d="M19.17,165.779l3.824,0.078c-0.273,1.229-0.805,2.154-1.595,2.775s-1.823,0.932-3.097,0.932
			c-1.509,0-2.693-0.469-3.551-1.405c-0.852-0.949-1.278-2.247-1.278-3.893c0-1.671,0.458-3.033,1.375-4.087
			c0.917-1.061,2.101-1.591,3.551-1.591c1.444,0,2.595,0.511,3.454,1.532c0.858,1.027,1.288,2.39,1.288,4.087l-0.02,0.693h-5.736
			c0.045,1.079,0.351,1.619,0.917,1.619C18.744,166.521,19.033,166.273,19.17,165.779z M19.258,162.794
			c0-0.195-0.023-0.374-0.068-0.537c-0.046-0.162-0.109-0.302-0.19-0.419s-0.177-0.21-0.288-0.278
			c-0.111-0.068-0.231-0.103-0.361-0.103c-0.273,0-0.494,0.126-0.663,0.376c-0.169,0.25-0.254,0.57-0.254,0.961H19.258z"/>
		<path d="M35.988,169.35h-3.873l-0.8-6.321l-1.21,6.321h-3.834l-2.624-10.546h3.844l0.595,3.386
			c0.071,0.429,0.141,0.888,0.209,1.375c0.068,0.488,0.132,1.018,0.19,1.59c0.052-0.592,0.122-1.159,0.209-1.702
			c0.088-0.543,0.187-1.068,0.298-1.575l0.692-3.073h3.336l0.566,3.396c0.072,0.436,0.137,0.898,0.195,1.39s0.114,1.013,0.166,1.565
			c0.104-0.747,0.208-1.429,0.312-2.043c0.104-0.615,0.211-1.179,0.322-1.693l0.566-2.614h3.912L35.988,169.35z"/>
		<path d="M52.875,169.35h-4.068v-6.38l-3.736-8.683h4.244l0.732,2.233c0.143,0.437,0.271,0.855,0.385,1.259s0.217,0.79,0.307,1.161
			c0.15-0.553,0.279-1.029,0.391-1.43c0.111-0.399,0.209-0.723,0.293-0.971l0.742-2.253h4.213l-3.502,8.683V169.35z"/>
		<path d="M65.792,164.237c0,1.626-0.448,2.921-1.347,3.883c-0.897,0.963-2.101,1.444-3.609,1.444c-1.482,0-2.663-0.491-3.541-1.474
			c-0.872-0.988-1.308-2.315-1.308-3.979c0-1.665,0.445-3.002,1.337-4.01c0.885-1.015,2.059-1.522,3.521-1.522
			c1.542,0,2.751,0.505,3.629,1.513C65.354,161.1,65.792,162.481,65.792,164.237z M61.997,164.111c0-0.391-0.026-0.743-0.078-1.059
			s-0.127-0.586-0.225-0.811c-0.098-0.224-0.214-0.397-0.351-0.521c-0.137-0.123-0.29-0.186-0.459-0.186
			c-0.331,0-0.599,0.234-0.8,0.702c-0.201,0.41-0.303,1.024-0.303,1.845c0,0.806,0.102,1.421,0.303,1.844
			c0.201,0.468,0.472,0.702,0.81,0.702c0.318,0,0.582-0.23,0.79-0.692C61.893,165.422,61.997,164.813,61.997,164.111z"/>
		<path d="M71.216,169.35h-3.912v-10.546h3.912l-0.205,2.059c0.592-1.541,1.571-2.312,2.937-2.312v4.391
			c-0.429-0.234-0.794-0.352-1.093-0.352c-0.526,0-0.932,0.19-1.215,0.571c-0.282,0.38-0.424,0.935-0.424,1.663V169.35z"/>
		<path d="M81.079,169.35l-1.512-4.098c-0.072-0.182-0.189-0.582-0.352-1.199v5.297h-3.912v-16.478h3.912v10.683
			c0.084-0.273,0.177-0.545,0.278-0.814c0.101-0.27,0.206-0.545,0.316-0.824l1.269-3.112h4.234l-2.596,4.839l2.858,5.707H81.079z"/>
		<path d="M97.897,169.35H93.83v-11.453h-2.244v-3.609h8.644v3.609h-2.332V169.35z"/>
		<path d="M106.014,165.779l3.824,0.078c-0.272,1.229-0.805,2.154-1.595,2.775s-1.822,0.932-3.098,0.932
			c-1.509,0-2.692-0.469-3.551-1.405c-0.853-0.949-1.278-2.247-1.278-3.893c0-1.671,0.459-3.033,1.376-4.087
			c0.917-1.061,2.101-1.591,3.551-1.591c1.444,0,2.595,0.511,3.454,1.532c0.858,1.027,1.287,2.39,1.287,4.087l-0.02,0.693h-5.736
			c0.046,1.079,0.352,1.619,0.917,1.619C105.588,166.521,105.878,166.273,106.014,165.779z M106.102,162.794
			c0-0.195-0.022-0.374-0.068-0.537c-0.045-0.162-0.108-0.302-0.189-0.419c-0.082-0.117-0.178-0.21-0.288-0.278
			s-0.231-0.103-0.361-0.103c-0.272,0-0.494,0.126-0.663,0.376s-0.254,0.57-0.254,0.961H106.102z"/>
		<path d="M116.979,165.906v3.6c-0.233,0.025-0.438,0.044-0.614,0.054s-0.322,0.015-0.439,0.015c-1.17,0-2.149-0.352-2.937-1.054
			c-0.533-0.475-0.966-1.125-1.297-1.951c-0.332-0.826-0.498-1.675-0.498-2.546c0-1.548,0.475-2.846,1.425-3.893
			c0.942-1.034,2.133-1.552,3.57-1.552c0.085,0,0.191,0.004,0.322,0.01c0.13,0.007,0.286,0.017,0.468,0.029v3.435
			c-1.157,0.078-1.736,0.709-1.736,1.893c0,0.533,0.144,1.001,0.43,1.404c0.292,0.384,0.641,0.576,1.044,0.576
			c0.039,0,0.079-0.002,0.121-0.005C116.881,165.917,116.928,165.912,116.979,165.906z"/>
		<path d="M128.11,169.35h-3.912v-5.58c0-0.481-0.047-0.816-0.141-1.005c-0.095-0.188-0.259-0.283-0.493-0.283
			c-0.546,0-0.819,0.518-0.819,1.552v5.316h-3.912v-16.478h3.912v5.893c0,0.319-0.002,0.586-0.005,0.8
			c-0.003,0.215-0.008,0.378-0.015,0.488s-0.017,0.228-0.029,0.351c-0.013,0.124-0.026,0.261-0.039,0.41
			c0.631-1.489,1.555-2.234,2.771-2.234c0.846,0,1.503,0.315,1.971,0.946c0.475,0.631,0.712,1.509,0.712,2.635V169.35z"/>
		<path d="M140.285,169.35h-3.911v-7.395h-1.132v-3.151h1.132v-1.941c0-1.359,0.294-2.39,0.883-3.093
			c0.588-0.702,1.451-1.054,2.59-1.054c0.565,0,1.181,0.092,1.844,0.273v3.629c-0.345-0.247-0.611-0.37-0.8-0.37
			c-0.403,0-0.605,0.36-0.605,1.083v1.473h1.405v3.151h-1.405V169.35z"/>
		<path d="M152.363,164.237c0,1.626-0.448,2.921-1.347,3.883c-0.897,0.963-2.101,1.444-3.609,1.444
			c-1.482,0-2.663-0.491-3.541-1.474c-0.872-0.988-1.308-2.315-1.308-3.979c0-1.665,0.445-3.002,1.337-4.01
			c0.885-1.015,2.059-1.522,3.521-1.522c1.542,0,2.751,0.505,3.629,1.513C151.925,161.1,152.363,162.481,152.363,164.237z
			 M148.568,164.111c0-0.391-0.026-0.743-0.078-1.059s-0.127-0.586-0.225-0.811c-0.098-0.224-0.214-0.397-0.351-0.521
			c-0.137-0.123-0.29-0.186-0.459-0.186c-0.331,0-0.599,0.234-0.8,0.702c-0.201,0.41-0.303,1.024-0.303,1.845
			c0,0.806,0.102,1.421,0.303,1.844c0.201,0.468,0.472,0.702,0.81,0.702c0.318,0,0.582-0.23,0.79-0.692
			C148.464,165.422,148.568,164.813,148.568,164.111z"/>
		<path d="M157.787,169.35h-3.912v-10.546h3.912l-0.205,2.059c0.592-1.541,1.571-2.312,2.937-2.312v4.391
			c-0.429-0.234-0.794-0.352-1.093-0.352c-0.526,0-0.932,0.19-1.215,0.571c-0.282,0.38-0.424,0.935-0.424,1.663V169.35z"/>
		<path d="M167.484,168.979v-4.731c0.8,1.093,1.665,1.64,2.596,1.64c0.351,0,0.637-0.093,0.858-0.278
			c0.221-0.186,0.331-0.418,0.331-0.697c0-0.403-0.24-0.797-0.722-1.181l-0.663-0.518c-0.442-0.331-0.819-0.661-1.132-0.99
			c-0.312-0.328-0.566-0.666-0.761-1.014c-0.195-0.349-0.339-0.708-0.43-1.078c-0.091-0.371-0.137-0.762-0.137-1.171
			c0-0.702,0.163-1.438,0.488-2.205c0.162-0.357,0.351-0.685,0.565-0.98s0.462-0.558,0.741-0.785c0.768-0.65,1.694-0.976,2.78-0.976
			c0.97,0,1.945,0.257,2.927,0.771v4.604c-0.331-0.514-0.709-0.918-1.131-1.214c-0.423-0.296-0.84-0.444-1.249-0.444
			c-0.312,0-0.569,0.092-0.771,0.273c-0.208,0.176-0.312,0.387-0.312,0.634c0,0.403,0.276,0.804,0.829,1.2l0.645,0.478
			c0.858,0.618,1.473,1.253,1.844,1.902c0.377,0.651,0.565,1.412,0.565,2.283c0,1.483-0.452,2.706-1.356,3.668
			c-0.903,0.963-2.048,1.444-3.434,1.444C169.602,169.613,168.577,169.401,167.484,168.979z"/>
		<path d="M186.293,164.237c0,1.626-0.448,2.921-1.347,3.883c-0.897,0.963-2.101,1.444-3.609,1.444
			c-1.482,0-2.663-0.491-3.541-1.474c-0.872-0.988-1.308-2.315-1.308-3.979c0-1.665,0.445-3.002,1.337-4.01
			c0.885-1.015,2.059-1.522,3.521-1.522c1.542,0,2.751,0.505,3.629,1.513C185.854,161.1,186.293,162.481,186.293,164.237z
			 M182.498,164.111c0-0.391-0.026-0.743-0.078-1.059s-0.127-0.586-0.225-0.811c-0.098-0.224-0.214-0.397-0.351-0.521
			c-0.137-0.123-0.29-0.186-0.459-0.186c-0.331,0-0.599,0.234-0.8,0.702c-0.201,0.41-0.303,1.024-0.303,1.845
			c0,0.806,0.102,1.421,0.303,1.844c0.201,0.468,0.472,0.702,0.81,0.702c0.318,0,0.582-0.23,0.79-0.692
			C182.394,165.422,182.498,164.813,182.498,164.111z"/>
		<path d="M193.288,165.906v3.6c-0.233,0.025-0.438,0.044-0.614,0.054s-0.322,0.015-0.439,0.015c-1.17,0-2.149-0.352-2.937-1.054
			c-0.533-0.475-0.966-1.125-1.297-1.951c-0.332-0.826-0.498-1.675-0.498-2.546c0-1.548,0.475-2.846,1.425-3.893
			c0.942-1.034,2.133-1.552,3.57-1.552c0.085,0,0.191,0.004,0.322,0.01c0.13,0.007,0.286,0.017,0.468,0.029v3.435
			c-1.157,0.078-1.736,0.709-1.736,1.893c0,0.533,0.144,1.001,0.43,1.404c0.292,0.384,0.641,0.576,1.044,0.576
			c0.039,0,0.079-0.002,0.121-0.005C193.189,165.917,193.236,165.912,193.288,165.906z"/>
		<path d="M198.888,155.536c0,0.617-0.225,1.15-0.674,1.6c-0.462,0.442-0.998,0.663-1.609,0.663c-0.631,0-1.171-0.225-1.619-0.673
			c-0.442-0.462-0.664-1.002-0.664-1.619c0-0.631,0.222-1.168,0.664-1.61c0.461-0.442,0.998-0.663,1.609-0.663
			c0.644,0,1.187,0.225,1.629,0.673C198.666,154.349,198.888,154.892,198.888,155.536z M198.556,169.35h-3.922v-10.546h3.922V169.35
			z"/>
		<path d="M209.784,169.35h-3.922c0.033-0.352,0.059-0.687,0.078-1.005s0.039-0.575,0.059-0.771c-0.677,1.326-1.584,1.99-2.722,1.99
			c-0.988,0-1.772-0.494-2.352-1.483c-0.572-0.981-0.858-2.341-0.858-4.077c0-1.679,0.296-2.999,0.888-3.961
			c0.592-0.976,1.398-1.464,2.42-1.464c1.047,0,1.893,0.631,2.536,1.893c-0.013-0.13-0.022-0.243-0.029-0.341
			c-0.006-0.098-0.013-0.179-0.02-0.244l-0.039-0.614l-0.029-0.469h3.99V169.35z M205.823,163.945c0-0.391-0.015-0.723-0.044-0.995
			c-0.029-0.273-0.076-0.496-0.141-0.669c-0.065-0.172-0.15-0.296-0.254-0.37c-0.104-0.075-0.231-0.112-0.381-0.112
			c-0.663,0-0.995,0.881-0.995,2.644c0,1.262,0.296,1.893,0.888,1.893C205.515,166.335,205.823,165.538,205.823,163.945z"/>
		<path d="M215.502,169.35h-3.912v-16.478h3.912V169.35z"/>
		<path d="M228.71,160.638h5.678v0.624c0,2.901-0.433,4.989-1.297,6.264c-0.943,1.392-2.338,2.088-4.186,2.088
			c-1.814,0-3.238-0.684-4.272-2.049c-1.028-1.379-1.542-3.271-1.542-5.678c0-2.439,0.518-4.361,1.552-5.766
			c1.034-1.405,2.448-2.107,4.243-2.107c2.381,0,4.107,1.242,5.181,3.727l-3.941,1.444c-0.059-0.475-0.193-0.851-0.405-1.127
			c-0.211-0.276-0.477-0.415-0.795-0.415c-1.118,0-1.678,1.538-1.678,4.614c0,1.308,0.123,2.258,0.371,2.849
			c0.247,0.593,0.64,0.889,1.18,0.889c0.215,0,0.41-0.053,0.586-0.156c0.175-0.104,0.323-0.251,0.443-0.439s0.215-0.418,0.283-0.688
			s0.103-0.571,0.103-0.902h-1.503V160.638z"/>
		<path d="M245.48,164.237c0,1.626-0.448,2.921-1.347,3.883c-0.897,0.963-2.101,1.444-3.609,1.444c-1.482,0-2.663-0.491-3.541-1.474
			c-0.872-0.988-1.308-2.315-1.308-3.979c0-1.665,0.445-3.002,1.337-4.01c0.885-1.015,2.059-1.522,3.521-1.522
			c1.542,0,2.751,0.505,3.629,1.513C245.042,161.1,245.48,162.481,245.48,164.237z M241.686,164.111
			c0-0.391-0.026-0.743-0.078-1.059s-0.127-0.586-0.225-0.811c-0.098-0.224-0.214-0.397-0.351-0.521
			c-0.137-0.123-0.29-0.186-0.459-0.186c-0.331,0-0.599,0.234-0.8,0.702c-0.201,0.41-0.303,1.024-0.303,1.845
			c0,0.806,0.102,1.421,0.303,1.844c0.201,0.468,0.472,0.702,0.81,0.702c0.318,0,0.582-0.23,0.79-0.692
			C241.581,165.422,241.686,164.813,241.686,164.111z"/>
		<path d="M256.494,164.237c0,1.626-0.448,2.921-1.347,3.883c-0.897,0.963-2.101,1.444-3.609,1.444
			c-1.482,0-2.663-0.491-3.541-1.474c-0.872-0.988-1.308-2.315-1.308-3.979c0-1.665,0.445-3.002,1.337-4.01
			c0.885-1.015,2.059-1.522,3.521-1.522c1.542,0,2.751,0.505,3.629,1.513C256.056,161.1,256.494,162.481,256.494,164.237z
			 M252.699,164.111c0-0.391-0.026-0.743-0.078-1.059s-0.127-0.586-0.225-0.811c-0.098-0.224-0.214-0.397-0.351-0.521
			c-0.137-0.123-0.29-0.186-0.459-0.186c-0.331,0-0.599,0.234-0.8,0.702c-0.201,0.41-0.303,1.024-0.303,1.845
			c0,0.806,0.102,1.421,0.303,1.844c0.201,0.468,0.472,0.702,0.81,0.702c0.318,0,0.582-0.23,0.79-0.692
			C252.595,165.422,252.699,164.813,252.699,164.111z"/>
		<path d="M263.421,169.35c0.007-0.11,0.014-0.237,0.02-0.381c0.007-0.143,0.017-0.309,0.029-0.497
			c0.014-0.117,0.023-0.296,0.029-0.537c-0.377,0.612-0.744,1.038-1.103,1.278c-0.351,0.234-0.783,0.352-1.297,0.352
			c-1.061,0-1.893-0.475-2.498-1.425c-0.598-0.949-0.897-2.27-0.897-3.961c0-1.775,0.293-3.15,0.878-4.126
			c0.586-0.982,1.412-1.474,2.479-1.474c0.585,0,1.057,0.131,1.414,0.391c0.378,0.26,0.742,0.712,1.093,1.355
			c-0.02-0.338-0.029-0.543-0.029-0.614l-0.039-1.063v-5.775h3.922v16.478H263.421z M261.753,164.033
			c0,1.443,0.322,2.165,0.966,2.165c0.604,0,0.907-0.744,0.907-2.233c0-1.425-0.293-2.137-0.878-2.137
			C262.085,161.828,261.753,162.563,261.753,164.033z"/>
	</g>
	<g>
		<g id="YDTqSO.tif_6_">
			<g>
				<g>
					<path fill="#00402E" d="M139.689,132.977c2.019-0.315,4.06-0.558,6.062-0.963c7.823-1.601,15.215-4.216,19.577-11.449
						c2.287-3.801,4.347-7.98,5.354-12.262c3.563-15.188,10.373-28.701,19.57-41.165c2.941-3.988,5.494-8.261,8.227-12.401
						c0-1.179,0-2.361,0-3.536c-0.707-1.678-1.223-3.477-2.174-5.01c-1.601-2.583-3.871-2.759-6.088-0.691
						c-0.543,0.5-1.05,1.042-1.482,1.627c-5.592,7.582-11.152,15.184-16.736,22.766c-0.823,1.12-1.588,2.345-2.618,3.243
						c-2.024,1.76-4.457,1.14-5.639-1.292c-0.944-1.928-0.642-3.816,0.047-5.775c0.999-2.837,1.951-5.709,2.688-8.628
						c2.153-8.558,4.369-17.104,6.185-25.739c0.698-3.305,0.598-6.841,0.422-10.251c-0.104-2.076-1.261-4.008-3.604-4.542
						c-2.365-0.539-4.062,0.589-5.496,2.423c-2.691,3.45-4.269,7.102-5.209,11.203c-1.037,4.496-2.123,9.881-3.387,14.321
						c-0.918,3.231-1.39,5.924-2.33,9.151c-0.615,2.115-1.697,4.406-2.393,6.485c-0.448,1.362-0.568,2.49-1.518,4.066
						c-2.403-3.052-2.688-5.947-2.26-9.026c0.598-4.289,1.437-8.569,1.697-12.881c0.581-9.689,0.12-19.402,1.912-29.06
						c0.904-4.886,0.312-9.994-5.062-12.784c-0.588,0-1.183,0-1.768,0c-3.264,1.202-5.011,3.711-5.84,6.93
						c-0.365,1.417-0.577,2.884-0.737,4.339c-0.731,6.649-1.329,13.314-2.144,19.952c-0.885,7.243-2.764,14.017-2.783,21.591
						c-0.002,0.726,0.216,2.564-0.062,3.168c-0.535,1.175,0.938,1.393,0.236,2.49c-0.622-0.991-1.252-1.982-1.857-2.985
						c-0.105-0.179-0.109-0.429-0.119-0.651c-0.574-9.537-0.047-18.911-0.492-28.459c-0.152-3.286-0.736-6.778-0.929-10.06
						c-0.136-2.302-0.763-4.663-1.641-6.81c-1.354-3.301-3.803-3.789-6.753-1.725c-2.304,1.611-3.666,3.898-4.142,6.56
						c-0.593,3.321-0.813,6.704-1.2,10.06c-0.882,7.547-1.364,15.113-0.224,22.672c0.179,1.209,0.339,2.412,0.472,3.617
						c0.866,7.828,0.657,15.617-1.325,23.339c-0.748,2.915-1.512,5.877-2.748,8.601c-2.644,5.798-8.437,6.279-12.206,1.187
						c-0.529-0.71-1.005-1.459-1.461-2.213c-4.076-6.723-9.465-12.171-15.964-16.569c-4.907-3.321-8.663-2.669-11.904,2.158
						c0,0.729,0,1.467,0,2.205c1.192,1.838,2.453,3.633,3.557,5.518c2.111,3.61,4.137,7.27,6.201,10.911
						c1.916,3.387,4.115,6.643,5.709,10.178c5.366,11.901,13.042,21.75,24.36,28.545c0.815,0.492,1.608,1.037,2.361,1.623
						c3.762,2.935,8.076,4.457,12.752,5.104"/>
				</g>
			</g>
		</g>
		<g>
			<path fill="#8DC63F" d="M143.788,127.038c6.149-1.256,10.737-4.534,14.052-10.036c2.127-3.527,3.488-6.652,4.172-9.545
				c2.29-9.76,7.793-16.834,13.606-24.315c1.421-1.822,2.884-3.707,4.315-5.654c1.588-2.154,3.062-4.457,4.491-6.685
				c0.636-0.995,1.272-1.99,1.921-2.974v-2.533c-0.16-0.386-0.306-0.78-0.457-1.174c-0.359-0.937-0.691-1.826-1.187-2.619
				c-0.521-0.843-1.12-1.315-1.78-1.401c-0.679-0.093-1.455,0.238-2.229,0.96c-0.452,0.425-0.822,0.82-1.111,1.218
				c-2.256,3.059-4.507,6.123-6.755,9.189c-2.166,2.942-4.323,5.885-6.493,8.831c-0.133,0.179-0.27,0.371-0.406,0.562
				c-0.515,0.733-1.054,1.487-1.744,2.091c-0.42,0.367-0.933,0.503-1.475,0.394c-1.994-0.41-3.895-4.101-4.25-4.838
				c-0.895-1.827-0.491-3.543,0.012-4.983c0.702-1.994,1.504-4.359,2.111-6.782l0.667-2.638c1.468-5.791,2.981-11.781,4.229-17.716
				c0.543-2.575,0.457-5.354,0.319-7.976c-0.085-1.616-0.993-2.778-2.442-3.11c-1.442-0.328-2.625,0.199-3.812,1.725
				c-1.851,2.369-2.47,5.135-3.126,8.062l-0.223,0.976c-0.733,3.172-1.615,6.552-2.778,10.641c-0.374,1.335-0.827,2.662-1.265,3.953
				c-0.397,1.194-0.814,2.423-1.17,3.645c-0.215,0.742-0.371,1.53-0.52,2.291c-0.18,0.933-0.367,1.896-0.676,2.825
				c-0.891,2.688-2.342,4.05-4.309,4.058h-0.258l-0.16-0.203c-1.697-2.162-1.36-3.945-1.007-5.838
				c0.074-0.402,0.156-0.823,0.22-1.264c0.27-1.951,0.233-4.102,0.199-6.173c-0.027-1.471-0.056-2.993,0.034-4.429
				c0.146-2.423,0.203-4.894,0.271-7.286c0.136-5.17,0.271-10.521,1.248-15.781c0.857-4.62-0.323-7.726-3.613-9.494h-1.176
				c-2.156,0.824-3.534,2.494-4.201,5.093c-0.246,0.944-0.424,1.982-0.576,3.356c-0.221,2.021-0.425,4.042-0.632,6.064
				c-0.328,3.192-0.665,6.497-1.06,9.74c-0.708,5.756-0.617,11.641-0.417,17.143c0.004,0.145,0.023,0.309,0.041,0.468
				c0.055,0.476,0.113,1.019-0.104,1.495c-0.316,0.699-0.749,1.327-1.167,1.939c-0.17,0.246-0.34,0.492-0.501,0.745l-0.107,0.164
				l-0.182,0.055c-1.013,0.316-1.844-0.059-2.478-1.112c-0.143-0.242-0.158-0.515-0.168-0.714c-0.127-2.107-0.254-4.179-0.384-6.244
				c-0.334-5.397-0.679-10.973-0.937-16.459c-0.059-1.296,0.023-2.611,0.105-3.879c0.08-1.303,0.164-2.654,0.09-3.949
				c-0.096-1.643-0.533-3.446-1.262-5.217c-0.439-1.081-1.026-1.732-1.744-1.943c-0.765-0.226-1.735,0.055-2.808,0.804
				c-1.641,1.151-2.701,2.829-3.062,4.851c-0.318,1.795-0.503,3.653-0.685,5.444c-0.082,0.831-0.166,1.662-0.259,2.49
				c-0.621,5.299-1.124,11.558-0.18,17.81c0.143,0.96,0.27,1.924,0.377,2.884c0.64,5.775,0.995,10.708-0.666,17.182
				c-0.589,2.294-1.2,4.675-2.207,6.891c-1.526,3.349-5.855,6.496-9.452,6.871c-1.947,0.207-3.496-0.397-4.493-1.743
				c-0.371-0.505-0.736-1.058-1.185-1.787c-3.069-5.073-7.268-9.432-12.477-12.956c-1.871-1.265-3.461-1.745-4.878-1.467
				c-1.336,0.257-2.554,1.206-3.721,2.899v1.428c0.271,0.417,0.542,0.823,0.817,1.233c0.648,0.979,1.319,1.99,1.922,3.021
				c1.174,2.009,2.316,4.035,3.458,6.063l1.456,2.58c0.48,0.847,0.981,1.683,1.48,2.517c1.077,1.791,2.188,3.642,3.063,5.58
				l-0.484,0.219l1.448-0.646c-0.901-1.998-2.031-3.879-3.12-5.693c-0.496-0.826-0.991-1.654-1.465-2.494l-1.456-2.578
				c-1.144-2.033-2.289-4.062-3.467-6.076c-0.619-1.062-1.299-2.084-1.955-3.071c-0.212-0.32-0.427-0.64-0.64-0.968v-0.776
				c0.938-1.288,1.881-2.006,2.868-2.205c1.124-0.211,2.457,0.21,4.08,1.311c5.083,3.438,9.176,7.688,12.169,12.624
				c0.462,0.765,0.845,1.347,1.235,1.873c1.217,1.644,3.151,2.407,5.455,2.17c3.99-0.422,8.612-3.776,10.304-7.485
				c1.045-2.302,1.693-4.833,2.267-7.071c1.705-6.646,1.342-11.679,0.692-17.56c-0.107-0.976-0.236-1.951-0.384-2.927
				c-0.923-6.126-0.423-12.296,0.186-17.529c0.094-0.831,0.179-1.666,0.263-2.501c0.178-1.776,0.359-3.614,0.673-5.366
				c0.316-1.768,1.198-3.172,2.626-4.171c0.777-0.542,1.475-0.785,1.902-0.656c0.515,0.148,0.892,0.894,1.067,1.323
				c0.685,1.67,1.093,3.36,1.183,4.882c0.072,1.237-0.008,2.494-0.09,3.824c-0.084,1.299-0.17,2.638-0.104,3.992
				c0.255,5.498,0.599,11.078,0.937,16.475c0.129,2.064,0.257,4.136,0.382,6.236c0.014,0.253,0.033,0.726,0.318,1.206
				c1.245,2.072,3.003,1.787,3.698,1.577l0.55-0.172l0.314-0.488c0.156-0.238,0.318-0.476,0.484-0.718
				c0.443-0.648,0.901-1.319,1.257-2.1c0.337-0.737,0.251-1.495,0.19-2.052c-0.015-0.133-0.029-0.262-0.033-0.387
				c-0.198-5.459-0.287-11.293,0.408-16.979c0.399-3.25,0.734-6.56,1.062-9.755c0.207-2.018,0.41-4.039,0.632-6.053
				c0.146-1.323,0.312-2.318,0.545-3.215c0.567-2.197,1.647-3.566,3.386-4.292h0.693c2.697,1.553,3.605,4.183,2.85,8.238
				c-0.983,5.346-1.127,10.735-1.265,15.952c-0.062,2.38-0.121,4.843-0.272,7.25c-0.086,1.471-0.06,3.013-0.035,4.511
				c0.035,2.033,0.07,4.133-0.188,6.002c-0.062,0.425-0.137,0.827-0.211,1.221c-0.362,1.939-0.776,4.145,1.218,6.681l0.478,0.613
				l0.772-0.004c1.7-0.008,4-0.839,5.307-4.784c0.336-0.991,0.527-1.99,0.719-2.954c0.146-0.772,0.288-1.506,0.49-2.201
				c0.353-1.194,0.766-2.419,1.16-3.598c0.439-1.303,0.894-2.649,1.278-4.007c1.167-4.102,2.058-7.5,2.794-10.685l0.219-0.987
				c0.633-2.806,1.229-5.459,2.924-7.637c1.093-1.393,1.889-1.545,2.755-1.346c1.327,0.305,1.585,1.463,1.62,2.131
				c0.128,2.552,0.214,5.249-0.301,7.707c-1.246,5.912-2.756,11.89-4.22,17.673l-0.667,2.642c-0.601,2.376-1.393,4.71-2.084,6.685
				c-0.546,1.549-1.037,3.609,0.031,5.799c0.714,1.467,2.638,4.932,4.99,5.412c0.859,0.176,1.705-0.051,2.377-0.636
				c0.793-0.687,1.365-1.495,1.916-2.275c0.137-0.191,0.262-0.371,0.398-0.554c2.166-2.938,4.33-5.885,6.488-8.827
				c2.252-3.067,4.499-6.126,6.755-9.182c0.259-0.343,0.577-0.698,0.979-1.077c0.52-0.484,1.015-0.734,1.365-0.683
				c0.44,0.055,0.832,0.593,1.026,0.913c0.44,0.703,0.757,1.542,1.092,2.431c0.13,0.335,0.259,0.679,0.388,1.007v2.01
				c-0.586,0.901-1.168,1.811-1.744,2.72c-1.426,2.212-2.885,4.503-4.452,6.626c-1.429,1.932-2.888,3.812-4.302,5.631
				c-5.896,7.582-11.461,14.734-13.801,24.725c-0.656,2.786-1.982,5.812-4.052,9.244c-3.2,5.305-7.43,8.332-13.317,9.533
				l-0.117,0.031"/>
			<circle fill="#8DC63F" cx="142.916" cy="126.691" r="1.153"/>
			<path fill="#8DC63F" d="M90.282,101.814c0-1.02,0.827-1.842,1.846-1.842c1.021,0,1.848,0.822,1.848,1.842
				c0,1.021-0.827,1.85-1.848,1.85C91.109,103.664,90.282,102.836,90.282,101.814z"/>
		</g>
		<g>
			<path fill="#00AE4D" d="M86.597,94.773l-1.459-2.582c-1.138-2.021-2.277-4.047-3.446-6.044c-0.591-1.011-1.255-2.006-1.895-2.97
				c-0.305-0.457-0.609-0.917-0.907-1.377l-0.086-0.133v-2.064l0.09-0.132c1.358-2.021,2.825-3.161,4.489-3.489
				c1.702-0.324,3.553,0.207,5.67,1.635c5.334,3.614,9.637,8.082,12.79,13.283c0.428,0.707,0.777,1.232,1.13,1.705
				c0.774,1.045,1.967,1.494,3.532,1.326c3.215-0.336,7.234-3.262,8.601-6.255c0.968-2.134,1.566-4.464,2.144-6.72
				c1.475-5.751,1.372-10.173,0.638-16.803c-0.105-0.948-0.23-1.896-0.373-2.845c-0.958-6.373-0.449-12.717,0.173-18.087
				c0.098-0.823,0.18-1.647,0.262-2.47c0.181-1.814,0.371-3.695,0.698-5.525c0.408-2.307,1.618-4.223,3.493-5.534
				c1.364-0.956,2.618-1.28,3.713-0.956c1.04,0.312,1.857,1.167,2.427,2.56c0.771,1.881,1.233,3.797,1.336,5.553
				c0.078,1.366-0.008,2.747-0.092,4.086c-0.078,1.237-0.16,2.517-0.104,3.762c0.256,5.479,0.605,11.047,0.939,16.436
				c0.128,2.072,0.255,4.14,0.38,6.216c0.006,0.117,0.012,0.238,0.029,0.281c0.373,0.621,0.692,0.746,1.075,0.679
				c0.133-0.199,0.268-0.402,0.406-0.601c0.412-0.597,0.8-1.163,1.077-1.775c0.098-0.21,0.057-0.585,0.014-0.944
				c-0.02-0.18-0.039-0.367-0.047-0.542c-0.199-5.545-0.291-11.484,0.425-17.31c0.395-3.235,0.73-6.529,1.058-9.721
				c0.207-2.021,0.414-4.046,0.634-6.064c0.155-1.428,0.342-2.513,0.601-3.516c0.762-2.946,2.426-4.917,4.951-5.846l0.18-0.035
				h1.529l0.117,0.058c3.785,1.971,5.232,5.569,4.275,10.685c-0.959,5.182-1.097,10.485-1.232,15.621
				c-0.059,2.4-0.12,4.882-0.27,7.321c-0.086,1.389-0.059,2.892-0.03,4.343c0.034,2.119,0.073,4.304-0.212,6.341
				c-0.065,0.453-0.145,0.89-0.227,1.311c-0.322,1.721-0.576,3.091,0.637,4.776c1.357-0.125,2.354-1.213,3.056-3.325
				c0.289-0.862,0.457-1.748,0.646-2.692c0.151-0.784,0.303-1.596,0.537-2.384c0.359-1.245,0.78-2.486,1.188-3.684
				c0.429-1.28,0.878-2.599,1.248-3.91c1.158-4.07,2.033-7.434,2.764-10.587l0.218-0.972c0.656-2.911,1.331-5.923,3.325-8.472
				c1.436-1.85,3.032-2.536,4.887-2.111c1.903,0.433,3.155,2.001,3.262,4.085c0.137,2.692,0.227,5.549-0.344,8.25
				c-1.252,5.958-2.771,11.953-4.238,17.759l-0.666,2.638c-0.62,2.458-1.43,4.854-2.144,6.872c-0.612,1.749-0.632,2.993-0.059,4.168
				c0.956,1.958,2.471,4.054,3.513,4.265c0.214,0.047,0.395-0.004,0.568-0.156c0.598-0.523,1.078-1.19,1.58-1.904
				c0.138-0.195,0.273-0.386,0.418-0.582c2.162-2.938,4.324-5.88,6.49-8.827c2.252-3.063,4.502-6.126,6.754-9.19
				c0.332-0.449,0.737-0.897,1.242-1.362c1.01-0.944,2.07-1.377,3.086-1.237c0.979,0.128,1.856,0.784,2.541,1.893
				c0.549,0.882,0.92,1.857,1.278,2.806c0.151,0.414,0.312,0.827,0.483,1.233l0.039,0.207v2.958l-0.09,0.129
				c-0.67,1.026-1.334,2.061-1.998,3.099c-1.437,2.24-2.918,4.558-4.529,6.739c-1.44,1.955-2.911,3.848-4.332,5.674
				c-5.748,7.396-11.176,14.372-13.416,23.905c-0.702,3.008-2.105,6.23-4.288,9.855c-3.478,5.764-8.292,9.206-14.712,10.514
				c-2.98,0.847-5.814,1.179-8.401,1.179c-7.886,0-13.503-3.021-14.298-3.474l-0.521,0.922c0.823,0.464,6.651,3.602,14.833,3.602
				c2.67,0,5.584-0.336,8.66-1.206c6.695-1.377,11.711-4.972,15.344-10.987c2.236-3.724,3.688-7.049,4.412-10.162
				c2.189-9.312,7.547-16.203,13.222-23.496c1.425-1.834,2.899-3.734,4.353-5.697c1.627-2.205,3.125-4.542,4.568-6.802
				c0.663-1.034,1.314-2.06,1.986-3.079l0.266-0.398V64.87l-0.125-0.292c-0.164-0.394-0.32-0.796-0.469-1.198
				c-0.374-0.991-0.766-2.025-1.365-2.989c-1.085-1.749-2.396-2.26-3.303-2.376c-0.928-0.133-2.367,0.035-3.944,1.506
				c-0.554,0.511-1.003,1.006-1.373,1.51c-2.26,3.06-4.507,6.123-6.759,9.19c-2.162,2.938-4.324,5.885-6.493,8.827
				c-0.142,0.195-0.285,0.398-0.426,0.593c-0.409,0.585-0.804,1.136-1.237,1.561c-0.559-0.355-1.689-1.736-2.605-3.621
				c-0.444-0.898-0.409-1.874,0.108-3.348c0.714-2.041,1.537-4.468,2.166-6.966l0.667-2.638c1.469-5.811,2.989-11.824,4.25-17.798
				c0.59-2.829,0.504-5.76,0.362-8.522c-0.134-2.579-1.697-4.515-4.081-5.061c-2.264-0.515-4.27,0.316-5.959,2.49
				c-2.139,2.735-2.842,5.865-3.52,8.893l-0.215,0.968c-0.728,3.133-1.602,6.481-2.756,10.532c-0.363,1.288-0.809,2.591-1.232,3.855
				c-0.406,1.213-0.828,2.466-1.203,3.727c-0.241,0.839-0.4,1.678-0.562,2.485c-0.176,0.902-0.344,1.76-0.604,2.556
				c-0.508,1.522-1.068,2.166-1.568,2.435c-0.52-1.034-0.348-1.939-0.082-3.356c0.082-0.437,0.168-0.894,0.23-1.366
				c0.297-2.111,0.262-4.343,0.223-6.497c-0.023-1.499-0.051-2.915,0.031-4.269c0.148-2.458,0.218-4.944,0.279-7.352
				c0.125-5.092,0.267-10.36,1.211-15.457c1.299-7.013-1.908-10.291-4.836-11.812l-0.338-0.179h-2.072l-0.267,0.098
				c-2.868,1.061-4.755,3.274-5.608,6.579c-0.271,1.05-0.462,2.181-0.626,3.66c-0.22,2.025-0.429,4.051-0.636,6.072
				c-0.322,3.188-0.659,6.478-1.055,9.697c-0.72,5.904-0.634,11.886-0.427,17.482c0.004,0.203,0.027,0.414,0.052,0.625
				c0.016,0.144,0.039,0.351,0.037,0.46c-0.156,0.328-0.355,0.655-0.577,0.991c-0.109-1.834-0.225-3.661-0.338-5.495
				c-0.333-5.377-0.681-10.946-0.937-16.42c-0.057-1.183,0.023-2.38,0.102-3.649c0.086-1.366,0.174-2.778,0.092-4.207
				c-0.109-1.873-0.601-3.91-1.415-5.896c-0.868-2.123-2.17-2.896-3.106-3.169c-0.978-0.289-2.571-0.332-4.618,1.101
				c-2.109,1.479-3.467,3.625-3.928,6.212c-0.335,1.873-0.527,3.77-0.708,5.604c-0.084,0.823-0.164,1.639-0.26,2.455
				c-0.634,5.444-1.147,11.878-0.167,18.364c0.14,0.94,0.263,1.87,0.367,2.806c0.72,6.509,0.819,10.836-0.613,16.424
				c-0.568,2.208-1.151,4.496-2.083,6.544c-1.21,2.654-4.903,5.347-7.748,5.646c-1.756,0.188-2.371-0.632-2.57-0.904
				c-0.333-0.444-0.663-0.948-1.073-1.627c-3.231-5.332-7.645-9.909-13.106-13.607c-2.361-1.596-4.474-2.181-6.464-1.795
				c-1.955,0.382-3.643,1.67-5.165,3.934l-0.27,0.398v2.704L78,82.373c0.304,0.469,0.608,0.929,0.917,1.39
				c0.661,0.995,1.288,1.935,1.861,2.915c1.167,1.998,2.302,4.015,3.434,6.029l1.463,2.592"/>
			<circle fill="#00AE4D" cx="86.082" cy="94.989" r="1.152"/>
			<path fill="#00AE4D" d="M119.237,125.996c0-1.02,0.827-1.846,1.846-1.846s1.844,0.826,1.844,1.846
				c0,1.025-0.825,1.846-1.844,1.846S119.237,127.021,119.237,125.996z"/>
		</g>
		<g>
			<g>
				<path fill="#FFDE17" d="M137.119,114.707c-10.581,0-21.683-3.887-30.403-8.809c-0.404-0.322-0.769-0.533-1.167-0.67l0.353-1
					c0.515,0.185,0.993,0.453,1.415,0.805c13.506,7.621,32.951,12.753,46.789,4.16c2.828-1.756,4.929-5.098,5.481-8.723
					c0.488-3.191-0.297-6.16-2.196-8.357c-4.022-4.659-11.742-2.576-17.127,0.619l-0.594-0.869c0.78-0.612,1.184-1.112,1.237-1.338
					c0.147-0.645,0.335-1.284,0.522-1.924c0.764-2.649,1.486-5.151-0.43-7.547c-1.963-2.447-6.338-3.063-9.428-2.248
					c-5.017,1.323-5.717,4.901-6.528,9.042c-0.352,1.802-0.716,3.667-1.465,5.457c-1.013,2.41-3.106,4.225-6.062,5.252
					c-4.792,1.67-11.523,1.08-16.007-1.39c-1.407-0.776-2.542-2.485-3.854-4.461c-1.06-1.588-2.255-3.388-3.816-5.065
					c-3.12-3.344-5.998-5.826-8.107-6.989c-0.318-0.176-0.886-0.16-1.413,0.031c-0.3,0.113-0.556,0.273-0.702,0.437
					c1.996,3.68,6.017,10.263,8.413,13.56l-0.854,0.621c-2.476-3.41-6.673-10.291-8.63-13.935l-0.113-0.211l0.086-0.23
					c0.195-0.523,0.72-0.964,1.438-1.229c0.642-0.242,1.583-0.355,2.285,0.031c2.974,1.639,6.521,5.209,8.371,7.192
					c1.623,1.74,2.845,3.579,3.921,5.202c1.237,1.861,2.307,3.469,3.487,4.117c4.246,2.345,10.618,2.896,15.15,1.318
					c2.662-0.93,4.539-2.537,5.432-4.664c0.706-1.686,1.063-3.5,1.407-5.251c0.841-4.3,1.637-8.362,7.29-9.857
					c3.42-0.909,8.288-0.176,10.524,2.611c2.263,2.817,1.428,5.709,0.62,8.5c-0.168,0.573-0.336,1.15-0.477,1.729
					c5.494-2.626,12.323-3.711,16.221,0.8c2.107,2.435,2.979,5.709,2.443,9.205c-0.597,3.927-2.888,7.547-5.971,9.468
					C149.393,113.361,143.343,114.707,137.119,114.707z"/>
			</g>
			<g>
				<path fill="#FFDE17" d="M93.047,95.609c0,0.641-0.515,1.15-1.149,1.15c-0.638,0-1.153-0.511-1.153-1.15
					c0-0.637,0.515-1.15,1.153-1.15C92.532,94.458,93.047,94.973,93.047,95.609z"/>
			</g>
			<g>
				<path fill="#FFDE17" d="M106.878,104.729c0,0.637-0.517,1.151-1.153,1.151c-0.636,0-1.151-0.516-1.151-1.151
					c0-0.641,0.515-1.154,1.151-1.154C106.361,103.574,106.878,104.088,106.878,104.729z"/>
			</g>
		</g>
	</g>
</g>
</svg>
