<?xml version="1.0" encoding="utf-8"?>
<!-- Generator: Adobe Illustrator 16.0.0, SVG Export Plug-In . SVG Version: 6.00 Build 0)  -->
<!DOCTYPE svg PUBLIC "-//W3C//DTD SVG 1.1//EN" "http://www.w3.org/Graphics/SVG/1.1/DTD/svg11.dtd">
<svg version="1.1" id="Layer_1" xmlns="http://www.w3.org/2000/svg" xmlns:xlink="http://www.w3.org/1999/xlink" x="0px" y="0px"
	 width="100px" height="100px" viewBox="0 0 100 100" enable-background="new 0 0 100 100" xml:space="preserve">
<g>
	<path fill="#00AE4D" d="M50.558,100.259c27.614,0,49.999-22.385,49.999-50c0-27.612-22.385-50-49.999-50
		c-27.615,0-50.001,22.388-50.001,50C0.557,77.874,22.943,100.259,50.558,100.259"/>
	<path fill="#FFFFFF" d="M75.643,37.159c-1.843,0.818-3.824,1.373-5.902,1.619c2.124-1.271,3.755-3.284,4.519-5.684
		c-1.986,1.177-4.183,2.032-6.528,2.492c-1.869-1.998-4.542-3.244-7.499-3.244c-5.673,0-10.272,4.602-10.272,10.275
		c0,0.807,0.087,1.588,0.264,2.34c-8.54-0.431-16.109-4.516-21.18-10.737c-0.884,1.522-1.391,3.288-1.391,5.171
		c0,3.562,1.814,6.709,4.572,8.552c-1.684-0.052-3.27-0.517-4.657-1.283v0.126c0,4.98,3.541,9.135,8.245,10.077
		c-0.863,0.241-1.77,0.361-2.708,0.361c-0.662,0-1.308-0.063-1.932-0.184c1.306,4.082,5.1,7.054,9.597,7.131
		c-3.517,2.76-7.948,4.401-12.761,4.401c-0.83,0-1.649-0.046-2.452-0.141c4.547,2.911,9.949,4.613,15.751,4.613
		c18.904,0,29.236-15.654,29.236-29.237c0-0.445-0.009-0.89-0.028-1.326C72.525,41.029,74.271,39.22,75.643,37.159"/>
</g>
</svg>
